<svg aria-hidden="true" style="width:0;height:0;position:absolute;overflow:hidden" xmlns="http://www.w3.org/2000/svg"><defs><symbol id="icon-arrow" viewBox="0 0 82 32"><path d="M81.414 17.414a2 2 0 0 0 0-2.828L68.686 1.858a2 2 0 1 0-2.828 2.828L77.172 16 65.858 27.314a2 2 0 1 0 2.828 2.828l12.728-12.728zM0 18h80v-4H0v4z"/></symbol><symbol id="icon-burger-menu" viewBox="0 0 50 32"><path stroke-linecap="round" stroke-width="4.571" d="M2.286 2.286H48M2.286 16H48M2.286 29.714H48"/></symbol><symbol id="icon-button-greather" viewBox="0 0 22 32"><path fill="none" stroke="#000" style="stroke:var(--color1,#000)" stroke-linejoin="round" stroke-linecap="round" stroke-width="6.4" d="m6.167 3.796 12.83 12.218-12.83 12.218"/></symbol><symbol id="icon-close" viewBox="0 0 32 32"><path d="m17.253 16 7.369-7.369a.886.886 0 0 0-.047-1.207.89.89 0 0 0-1.206-.047L16 14.746 8.631 7.368A.892.892 0 0 0 7.369 8.63l7.378 7.369-7.378 7.369a.891.891 0 0 0-.05 1.304.89.89 0 0 0 1.304-.051l7.378-7.369 7.369 7.369a.885.885 0 0 0 1.206-.047.89.89 0 0 0 .047-1.206l-7.369-7.369z"/></symbol><symbol id="icon-facebook" viewBox="0 0 16 32"><path d="M14.143 15.972h-4.034v14.865H3.997V15.972H1.09v-5.224h2.907V7.367c0-2.418 1.142-6.203 6.166-6.203l4.527.019v5.071h-3.285c-.539 0-1.296.271-1.296 1.424v3.075h4.567l-.534 5.219z"/></symbol><symbol id="icon-github" viewBox="0 0 32 32"><path d="M16 0C7.212 0 0 7.212 0 16c0 7.499 5.262 14.312 12.25 16v-5.293c-.692.152-1.33.156-2.034-.052-.946-.279-1.714-.909-2.284-1.869-.364-.613-1.008-1.278-1.68-1.23l-.165-1.868c1.453-.124 2.711.886 3.457 2.14.332.558.713.884 1.203 1.029.473.14.982.072 1.574-.137.149-1.186.692-1.63 1.102-2.255v-.001c-4.167-.622-5.828-2.832-6.488-4.578-.874-2.317-.405-5.212 1.14-7.041.03-.036.084-.129.063-.194-.708-2.139.155-3.909.187-4.097.817.242.95-.243 3.551 1.337l.449.27c.188.112.129.048.317.034A13.544 13.544 0 0 1 16 7.723c1.136.015 2.273.178 3.404.484l.145.015c-.013-.002.04-.009.127-.062 3.248-1.968 3.132-1.324 4.003-1.608.032.188.883 1.987.182 4.099-.095.291 2.816 2.956 1.203 7.235-.659 1.746-2.32 3.957-6.487 4.578v.001c.534.814 1.176 1.247 1.173 2.927V32C26.738 30.312 32 23.499 32 16c0-8.788-7.212-16-16-16z"/></symbol><symbol id="icon-hero-ice-cream-face1" viewBox="0 0 35 32"><path d="M13.369 21.857c1.491-.477 2.034-2.742 1.213-5.059s-2.695-3.809-4.185-3.332c-1.491.477-2.034 2.742-1.213 5.059s2.695 3.809 4.185 3.332z"/><path d="M10.464 13.653c1.356-.434 3.151 1.035 3.921 3.208s.274 4.374-1.082 4.808c-1.356.434-3.151-1.035-3.921-3.208s-.273-4.375 1.082-4.808zm-.133-.375c-1.6.512-2.201 2.889-1.344 5.31s2.85 3.969 4.449 3.457c1.6-.512 2.201-2.889 1.344-5.31s-2.848-3.969-4.449-3.457zM22.462 18.953c1.491-.477 2.034-2.742 1.213-5.059s-2.694-3.809-4.185-3.332-2.034 2.742-1.213 5.059c.821 2.317 2.695 3.809 4.185 3.332z"/><path d="M19.557 10.75c1.356-.434 3.151 1.035 3.921 3.208s.274 4.374-1.082 4.808-3.151-1.035-3.921-3.208-.273-4.375 1.082-4.808zm-.133-.376c-1.6.512-2.201 2.889-1.344 5.31s2.85 3.969 4.449 3.457c1.6-.512 2.201-2.889 1.344-5.31s-2.848-3.969-4.449-3.457zM12.615 19.728c.836-.267 1.147-1.522.693-2.801s-1.499-2.1-2.335-1.833c-.836.267-1.147 1.522-.693 2.801s1.499 2.1 2.335 1.833z"/><path d="M10.996 15.156c.799-.256 1.806.548 2.247 1.791s.149 2.462-.65 2.718c-.799.256-1.806-.548-2.247-1.791s-.148-2.462.65-2.718zm-.044-.125c-.873.279-1.202 1.571-.737 2.885s1.55 2.154 2.423 1.874c.873-.279 1.202-1.571.737-2.885s-1.55-2.154-2.423-1.874zM21.709 16.824c.836-.267 1.147-1.522.693-2.801s-1.499-2.1-2.335-1.833c-.836.267-1.147 1.522-.693 2.801s1.499 2.1 2.335 1.833z"/><path d="M20.089 12.253c.799-.256 1.806.548 2.247 1.791s.149 2.462-.65 2.718c-.799.256-1.806-.548-2.247-1.791s-.148-2.462.65-2.718zm-.044-.126c-.873.279-1.202 1.571-.737 2.885s1.55 2.154 2.423 1.874c.873-.279 1.202-1.571.737-2.885s-1.55-2.154-2.423-1.874zM11.191 17.743c.503-.161.732-.796.512-1.419s-.807-.997-1.311-.836c-.503.161-.732.796-.512 1.419s.807.997 1.311.836z"/><path d="M20.196 14.589c.503-.161.732-.796.512-1.419s-.807-.997-1.311-.836c-.503.161-.732.796-.512 1.419s.807.997 1.311.836zM7.961 11.966c.221-.762.614-1.546 1.418-1.878.749-.308 1.589-.115 2.309.176.493.2.866-.511.37-.711-.959-.389-2.059-.604-3.047-.181-1.04.445-1.577 1.433-1.866 2.432-.143.494.674.652.817.162zM17.553 8.116a13.19 13.19 0 0 0 6.191-.814c.493-.193.23-.949-.267-.753a12.303 12.303 0 0 1-5.756.789c-.531-.058-.702.72-.168.778z"/><path stroke-miterlimit="10" stroke-width=".585" d="M20.568 26.874c-6.805 2.173-13.432.795-14.802-3.078M30.41 15.926c1.37 3.873-3.037 8.774-9.842 10.947M4.427 24.572l2.589-1.803M29.289 16.075l2.197-.423"/></symbol><symbol id="icon-hero-ice-cream-face2" viewBox="0 0 35 32"><path d="M12.353 17.514c1.267.696 3.265-.337 4.462-2.306s1.142-4.129-.125-4.825c-1.267-.696-3.265.337-4.462 2.306s-1.142 4.129.125 4.825z"/><path d="M16.593 10.543c1.152.633 1.178 2.727.055 4.573s-3.045 2.871-4.197 2.238c-1.152-.633-1.178-2.727-.055-4.573s3.046-2.871 4.197-2.238zm.194-.319c-1.36-.747-3.476.316-4.727 2.373s-1.163 4.33.196 5.077c1.36.747 3.476-.316 4.727-2.373s1.165-4.33-.196-5.077zM20.081 21.754c1.267.696 3.265-.337 4.462-2.306s1.142-4.129-.125-4.825c-1.267-.696-3.265.337-4.462 2.306s-1.142 4.129.125 4.825z"/><path d="M24.321 14.783c1.152.633 1.178 2.727.055 4.573s-3.045 2.871-4.197 2.238c-1.152-.633-1.178-2.727-.055-4.573s3.046-2.871 4.197-2.238zm.194-.319c-1.36-.747-3.476.316-4.727 2.373s-1.163 4.331.196 5.077c1.359.747 3.476-.316 4.727-2.373s1.165-4.33-.196-5.077zM13.453 15.705c.711.39 1.823-.175 2.484-1.262s.621-2.285-.089-2.676-1.823.175-2.484 1.262-.621 2.285.089 2.676z"/><path d="M15.816 11.82c.679.373.708 1.535.066 2.592s-1.717 1.613-2.396 1.24c-.679-.373-.708-1.535-.066-2.592s1.718-1.612 2.396-1.24zm.064-.106c-.742-.407-1.894.168-2.573 1.285s-.629 2.352.113 2.76c.742.407 1.894-.168 2.573-1.285s.629-2.352-.113-2.76zM21.181 19.945c.711.39 1.823-.175 2.484-1.262s.621-2.285-.089-2.676c-.711-.39-1.823.175-2.484 1.262s-.621 2.285.089 2.676z"/><path d="M23.544 16.06c.679.373.708 1.535.066 2.592s-1.717 1.613-2.396 1.24c-.679-.373-.708-1.535-.066-2.592s1.718-1.612 2.396-1.24zm.064-.106c-.742-.407-1.894.168-2.573 1.285s-.629 2.352.113 2.76c.742.407 1.894-.168 2.573-1.285s.629-2.352-.113-2.76zM14.978 14.2c.428.235 1.035-.004 1.357-.533s.236-1.148-.192-1.383c-.428-.235-1.035.004-1.357.533s-.236 1.148.192 1.383z"/><path d="M22.706 18.44c.428.235 1.035-.004 1.357-.533s.236-1.148-.192-1.383c-.428-.235-1.035.004-1.357.533s-.236 1.148.192 1.383zM15.614 7.608c1.426.096 2.721.811 3.522 1.936.279.391.956.027.676-.366-.967-1.359-2.477-2.193-4.201-2.309-.497-.034-.494.706.003.739zM23.678 12.032c1.426.096 2.721.811 3.522 1.936.279.391.956.027.676-.366-.967-1.359-2.477-2.193-4.201-2.309-.498-.034-.494.706.003.739z"/><path stroke-miterlimit="10" stroke-width=".464" d="M13.397 24.401c-5.784-3.173-8.851-8.414-6.851-11.706M27.491 24.186c-2 3.292-8.31 3.388-14.093.215M5.153 12.286l2.917.607M26.692 23.535l1.663 1.196"/></symbol><symbol id="icon-hero-ice-cream-face3" viewBox="0 0 34 32"><path d="M12.371 16.267c1.17.781 3.208-.06 4.552-1.878s1.485-3.925.315-4.706c-1.17-.781-3.208.06-4.552 1.878s-1.485 3.925-.315 4.706z"/><path d="M17.128 9.83c1.064.71.899 2.75-.361 4.455s-3.223 2.545-4.288 1.834c-1.064-.71-.899-2.75.361-4.455s3.224-2.544 4.288-1.834zm.218-.294c-1.256-.838-3.412.023-4.816 1.922s-1.524 4.119-.269 4.957c1.256.838 3.412-.022 4.816-1.922s1.525-4.118.269-4.957zM19.507 21.027c1.17.781 3.208-.06 4.552-1.878s1.485-3.925.315-4.706c-1.17-.781-3.208.06-4.552 1.878s-1.485 3.925-.315 4.706z"/><path d="M24.264 14.59c1.064.711.899 2.75-.361 4.455s-3.223 2.545-4.288 1.834c-1.064-.711-.899-2.75.361-4.455s3.224-2.544 4.288-1.834zm.218-.295c-1.256-.838-3.412.023-4.816 1.922s-1.524 4.119-.269 4.957c1.256.838 3.412-.023 4.816-1.922s1.525-4.118.269-4.957zM14.745 13.89c.656.438 1.79-.021 2.532-1.025s.812-2.173.155-2.611-1.79.021-2.532 1.025-.812 2.173-.155 2.611z"/><path d="M17.396 10.303c.627.419.551 1.552-.171 2.528s-1.817 1.429-2.444 1.01-.551-1.552.171-2.528c.721-.976 1.818-1.428 2.444-1.01zm.073-.098c-.685-.457-1.858.009-2.62 1.04s-.825 2.238-.14 2.695c.685.457 1.858-.009 2.62-1.04s.825-2.238.14-2.695zM21.984 18.718c.656.438 1.79-.021 2.532-1.025s.812-2.173.155-2.611c-.656-.438-1.79.021-2.532 1.025s-.812 2.173-.155 2.611z"/><path d="M24.636 15.131c.627.419.551 1.552-.171 2.528s-1.817 1.429-2.444 1.01c-.627-.419-.551-1.552.171-2.528s1.818-1.428 2.444-1.01zm.072-.098c-.685-.457-1.858.009-2.62 1.04s-.825 2.238-.14 2.695c.685.457 1.858-.009 2.62-1.04s.825-2.238.14-2.695zM14.393 13.435c.307.205.784.063 1.065-.317s.259-.854-.047-1.059c-.307-.205-.784-.063-1.065.317s-.26.854.048 1.059z"/><path d="M21.663 18.431c.307.205.784.063 1.065-.317s.259-.854-.048-1.059c-.307-.205-.784-.063-1.065.317s-.259.854.048 1.059zM16.195 6.89c1.447.049 2.734.706 3.587 1.816.288.375.873-.086.587-.459-.964-1.256-2.473-2.019-4.109-2.075-.487-.016-.555.703-.065.718zM24.607 11.767c1.364.467 2.371 1.472 2.828 2.774.155.44.843.135.69-.301-.519-1.478-1.723-2.627-3.262-3.153-.459-.156-.717.522-.256.68z"/><path stroke-miterlimit="10" stroke-width=".434" d="M12.482 23.015c-5.341-3.562-7.85-8.913-5.605-11.953M26.217 23.961c-2.245 3.04-8.394 2.616-13.735-.946M5.558 10.549l2.783.83M25.499 23.262l1.509 1.3"/><path stroke-miterlimit="10" stroke-width=".434" d="M12.648 23.408c.463-.352.343-1.225-.267-1.95s-1.481-1.026-1.944-.674c-.463.352-.343 1.225.267 1.95s1.481 1.026 1.944.674z"/><path stroke-miterlimit="10" stroke-width=".434" d="M12.145 23.89c.942.629 1.788 1.028 1.888.893s-.583-.755-1.525-1.384c-.942-.629-1.788-1.028-1.888-.893s.583.755 1.525 1.384z"/><path stroke-miterlimit="10" stroke-width=".434" d="M13.684 24.747c.889.384 1.809.279 2.055-.234s-.277-1.24-1.166-1.624-1.809-.279-2.055.234c-.245.513.277 1.24 1.166 1.624z"/></symbol><symbol id="icon-logo" viewBox="0 0 30 32"><path d="M15.226 17.082c1.415-3.784-1.515-5.856-3.457-7.217-.371-.278-.743-.538-1.043-.776-.537-.447-.933-1.037-1.141-1.699s-.217-1.37-.029-2.037a.394.394 0 0 0-.308-.491.407.407 0 0 0-.216.016 6.565 6.565 0 0 0-1.801 1.058c-.518.393-.937.898-1.226 1.476s-.44 1.213-.441 1.858c-.366.285-.69.618-.962.992a3.6 3.6 0 0 0-.709 2.324c-.595.538-1.038 1.22-1.286 1.977s-.292 1.566-.129 2.345a1.232 1.232 0 0 0-.106 2.06c.221.164.49.251.767.25h.026v2.152c0 .218.088.428.245.582s.369.241.591.241h.65l1.058 9.04a.83.83 0 0 0 .828.732h4.404c.206 0 .404-.075.557-.21s.251-.321.275-.522l1.058-9.04h.65c.222 0 .434-.087.591-.241s.245-.364.245-.582v-2.152h.026c.336 0 .658-.131.895-.366a1.242 1.242 0 0 0 0-1.773l-.011.004zm-9.531-6.866c.535 1.98 2.599 2.76 4.482 3.455a.41.41 0 0 0 .492-.051.403.403 0 0 0 .074-.483.401.401 0 0 0-.279-.197c-2.027-.758-3.939-1.464-4.084-3.488-.034-.556.072-1.112.308-1.619s.596-.947 1.047-1.284c.282-.232.586-.437.906-.615a4.604 4.604 0 0 0 0 .761c.043.58.204 1.146.473 1.663s.641.976 1.094 1.349c.308.26.691.527 1.114.813.976.692 2.087 1.464 2.792 2.511a3.859 3.859 0 0 1 .404 3.715h-1.641c-3.383 0-7.27-.922-8.039-3.506-.152-.532-.151-1.095.004-1.626s.457-1.009.873-1.379l-.019-.018zM8.74 22.693l1.24 1.222-1.24 1.222-1.24-1.23 1.24-1.215zm2.844 3.21-1.025 1.01-1.24-1.222 1.24-1.219 1.077 1.058-.052.373zM8.74 28.706 7.5 27.484l1.24-1.222 1.24 1.222-1.24 1.222zm-.568-3.008-1.24 1.222L5.9 25.903l-.045-.366 1.077-1.058 1.24 1.219zM6.36 27.484l-.249.245-.063-.556.312.311zm-.13 1.251.702-.692 1.363 1.354a.845.845 0 0 0 .026.081H6.316l-.085-.743zm4.322-.691.702.692-.085.732H9.108l1.444-1.424zm.817-.315-.249-.245.316-.311-.067.556zm.371-3.199-.62-.622.787-.776-.167 1.398zm-1.192-1.178-1.177-1.157h2.354l-1.177 1.157zm-3.62 0-1.177-1.157h2.354l-1.177 1.157zm4.01 7.817h-4.4c-.007-.001-.013-.004-.018-.008s-.008-.011-.008-.017l-.104-.878h4.663l-.1.878c-.001.007-.004.014-.01.018s-.012.007-.02.007h-.004zm3.405-12.751h-1.292a.406.406 0 0 0-.444.397c0 .056.012.111.035.161s.056.096.098.134a.403.403 0 0 0 .311.102h.46v2.152c-.001.007-.004.014-.01.018s-.012.007-.02.007H3.987c-.007 0-.014-.003-.02-.007s-.009-.011-.01-.018v-2.152h7.355a.404.404 0 0 0 .366-.397.393.393 0 0 0-.105-.268.413.413 0 0 0-.261-.129H3.144a.46.46 0 0 1-.501-.452.446.446 0 0 1 .15-.335.454.454 0 0 1 .351-.117h.843a.404.404 0 0 0 .366-.397.393.393 0 0 0-.105-.268.413.413 0 0 0-.261-.129h-.743a3.873 3.873 0 0 1 .81-3.185c.26.798.928 1.889 2.599 2.756 1.571.809 3.65 1.222 6.178 1.222h1.485a.46.46 0 0 1 .501.452.446.446 0 0 1-.15.335.454.454 0 0 1-.351.117h.026z"/><path d="m16.964 29.152-.292.449.006.004.287-.453zm3.149.151.535-.012-.014-.62-.611.104.09.528zm.037 1.648.136.518.409-.108-.009-.422-.535.012zm-4.133.079.12-.522-.003-.001-.117.523zm-2.04-.911.347-.408-.001-.001-.346.409zm-.737-1.673.536.003v-.003h-.536zm.256-1.172-.481-.236v.001l.481.236zm1.643-1.402.19.501.002-.001-.192-.5zm5.262-.136.534.042.035-.452-.44-.109-.129.52zm-.131 1.679-.1.526.587.111.046-.596-.534-.042zm-1.428-.687c-.804 0-1.48.086-1.973.303a1.616 1.616 0 0 0-.651.489 1.26 1.26 0 0 0-.255.774h1.071c0-.063.015-.098.038-.127a.554.554 0 0 1 .228-.155c.288-.126.784-.212 1.542-.212v-1.071zm-2.879 1.566c0 .551.247 1.006.709 1.307l.585-.897a.435.435 0 0 1-.222-.409h-1.071zm.715 1.31c.438.277 1.015.381 1.662.381v-1.071c-.559 0-.899-.095-1.089-.215l-.573.905zm1.662.382a11.1 11.1 0 0 0 1.863-.154l-.179-1.056c-.545.092-1.106.139-1.684.139v1.071zm1.238-.671.037 1.648 1.071-.024-.037-1.648-1.071.024zm.435 1.118a7.964 7.964 0 0 1-2.029.244v1.071c.821 0 1.589-.092 2.302-.279l-.273-1.036zm-2.029.244c-.757 0-1.369-.059-1.847-.169l-.24 1.044c.582.134 1.281.197 2.087.197v-1.071zm-1.85-.17c-.511-.114-.88-.236-1.127-.356l-.47.963c.354.173.814.316 1.363.439l.234-1.045zm-1.126-.356a3.258 3.258 0 0 1-.684-.44l-.693.817c.267.227.571.421.907.585l.47-.963zm-.685-.441c-.364-.308-.55-.709-.548-1.262l-1.071-.005c-.004.842.301 1.556.927 2.086l.691-.818zm-.547-1.264c0-.36.071-.669.202-.936l-.962-.471c-.211.43-.311.903-.311 1.407h1.071zm.201-.936c.244-.495.674-.88 1.352-1.137l-.38-1.002c-.884.336-1.549.885-1.933 1.666l.961.473zm1.354-1.138c.713-.274 1.508-.414 2.392-.414v-1.071c-.999 0-1.926.159-2.776.485l.384 1zm2.392-.414c.902 0 1.751.1 2.549.298l.258-1.04a11.605 11.605 0 0 0-2.807-.33v1.071zm2.144-.263-.131 1.679 1.068.083.131-1.679-1.068-.083zm.503 1.194a8.256 8.256 0 0 0-1.528-.161v1.071c.377 0 .818.046 1.328.142l.2-1.052zm5.226.856-.003.536.544.003-.006-.544-.536.006zm-.23-.696-.364.393.005.004.36-.397zm-1.334.052.371.386.004-.004-.375-.383zm-.324.633-.529-.087-.102.619.627.003.003-.536zm3.938 2.856.324.427.193-.146.018-.241-.534-.04zm-1.156.429-.115-.523-.003.001.118.522zm-4.017-.146-.183.504.004.002.178-.505zm-.915-.487-.332.42.003.003.003.003.326-.425zm-.612-.769-.48.237.001.002.479-.24zm.627-3.248.356.4-.356-.4zm4.896-.581.214-.491-.005-.002-.209.493zm1.23 1.13-.482.234.001.003.48-.237zm.209.937.534.039.001-.019v-.019h-.536zm-.063.863-.003.536.501.002.036-.499-.534-.039zm-4.242-.021.003-.536-.699-.003.178.676.518-.137zm.607.748-.264.466.002.001.261-.468zm3.253-.183v-.536h-.107l-.099.041.206.494zm.283 0 .534.04.043-.576h-.577v.536zm-1.615-1.523c-.004-.387-.093-.803-.406-1.087l-.72.794c-.006-.006.006.001.021.047a.87.87 0 0 1 .033.257l1.071-.011zm-.401-1.082c-.281-.261-.65-.347-1.013-.347v1.071c.209 0 .272.05.284.061l.729-.785zm-1.013-.348c-.399 0-.77.125-1.06.409l.75.765c.058-.057.144-.103.31-.103v-1.071zm-1.056.406a1.63 1.63 0 0 0-.482.932l1.057.174a.558.558 0 0 1 .167-.333l-.742-.773zm.044 1.555 1.888.011.006-1.071-1.888-.011-.006 1.071zm3.618 1.893c-.117.089-.404.213-.948.333l.23 1.046c.565-.124 1.049-.286 1.364-.525l-.647-.854zm-.951.334a6.805 6.805 0 0 1-1.498.175v1.071c.566 0 1.145-.068 1.735-.201l-.237-1.045zm-1.498.175c-.505 0-.92-.024-1.252-.068l-.143 1.062c.394.053.86.078 1.395.078v-1.071zm-1.252-.069a4.855 4.855 0 0 1-.971-.236l-.357 1.01c.389.137.784.233 1.184.287l.143-1.062zm-.966-.234a2.862 2.862 0 0 1-.772-.408l-.652.85c.305.234.66.421 1.059.565l.365-1.007zm-.766-.403a1.708 1.708 0 0 1-.465-.588l-.958.479c.189.377.44.697.759.949l.665-.84zm-.464-.586c-.113-.228-.18-.521-.18-.898h-1.071c0 .502.09.966.291 1.372l.96-.475zm-.18-.898c0-.377.068-.71.196-1.006l-.983-.427a3.57 3.57 0 0 0-.285 1.432h1.071zm.196-1.005c.135-.311.3-.541.487-.708l-.712-.8a3.056 3.056 0 0 0-.758 1.081l.983.427zm.488-.708c.576-.513 1.454-.811 2.719-.811v-1.071c-1.42 0-2.592.334-3.432 1.083l.713.8zm2.719-.811c.568 0 1.103.108 1.611.324l.418-.986a5.144 5.144 0 0 0-2.029-.409v1.071zm1.606.321c.474.207.78.5.962.873l.963-.468c-.307-.631-.82-1.091-1.497-1.387l-.428.982zm.963.876c.1.203.154.433.154.699h1.071c0-.417-.086-.811-.265-1.173l-.96.474zm.156.661-.063.863 1.068.078.063-.863-1.068-.078zm.474.366-4.242-.021-.005 1.071 4.242.021.005-1.071zm-4.763.651c.125.475.431.835.861 1.078l.527-.933c-.212-.12-.31-.258-.352-.418l-1.036.273zm.863 1.079c.434.243.978.34 1.585.34v-1.071c-.509 0-.848-.084-1.062-.204l-.523.935zm1.585.34c.651 0 1.367-.176 2.136-.496l-.412-.989c-.689.287-1.26.414-1.724.414v1.071zm1.93-.455h.282v-1.071h-.282v1.071zm-.251-.575-.099 1.329 1.068.08.099-1.329-1.068-.08z"/></symbol><symbol id="icon-telegram" viewBox="0 0 44 32"><path d="m17.343 21.048-.675 8.86c.966 0 1.384-.387 1.885-.852l4.527-4.038 9.381 6.412c1.72.895 2.933.424 3.397-1.477l6.157-26.929.002-.002c.546-2.374-.92-3.302-2.596-2.72L3.227 13.235c-2.47.895-2.433 2.18-.42 2.762l9.253 2.686L33.554 6.131c1.012-.625 1.931-.279 1.175.346l-17.386 14.57z"/></symbol></defs></svg>