<svg aria-hidden="true" style="width:0;height:0;position:absolute;overflow:hidden" xmlns="http://www.w3.org/2000/svg"><defs><symbol id="icon-arrow" viewBox="0 0 82 32"><path d="M81.414 17.414a2 2 0 0 0 0-2.828L68.686 1.858a2 2 0 1 0-2.828 2.828L77.172 16 65.858 27.314a2 2 0 1 0 2.828 2.828l12.728-12.728zM0 18h80v-4H0v4z"/></symbol><symbol id="icon-burger-menu" viewBox="0 0 50 32"><path stroke-linecap="round" stroke-width="4.571" d="M2.286 2.286H48M2.286 16H48M2.286 29.714H48"/></symbol><symbol id="icon-button-greather" viewBox="0 0 22 32"><path fill="none" stroke-linejoin="round" stroke-linecap="round" stroke-width="6.4" d="m6.167 3.796 12.83 12.218-12.83 12.218"/></symbol><symbol id="icon-close" viewBox="0 0 32 32"><path d="m17.253 16 7.369-7.369a.886.886 0 0 0-.047-1.207.89.89 0 0 0-1.206-.047L16 14.746 8.631 7.368A.892.892 0 0 0 7.369 8.63l7.378 7.369-7.378 7.369a.891.891 0 0 0-.05 1.304.89.89 0 0 0 1.304-.051l7.378-7.369 7.369 7.369a.885.885 0 0 0 1.206-.047.89.89 0 0 0 .047-1.206l-7.369-7.369z"/></symbol><symbol id="icon-facebook" viewBox="0 0 16 32"><path d="M14.143 15.972h-4.034v14.865H3.997V15.972H1.09v-5.224h2.907V7.367c0-2.418 1.142-6.203 6.166-6.203l4.527.019v5.071h-3.285c-.539 0-1.296.271-1.296 1.424v3.075h4.567l-.534 5.219z"/></symbol><symbol id="icon-github" viewBox="0 0 32 32"><path d="M16 0C7.212 0 0 7.212 0 16c0 7.499 5.262 14.312 12.25 16v-5.293c-.692.152-1.33.156-2.034-.052-.946-.279-1.714-.909-2.284-1.869-.364-.613-1.008-1.278-1.68-1.23l-.165-1.868c1.453-.124 2.711.886 3.457 2.14.332.558.713.884 1.203 1.029.473.14.982.072 1.574-.137.149-1.186.692-1.63 1.102-2.255v-.001c-4.167-.622-5.828-2.832-6.488-4.578-.874-2.317-.405-5.212 1.14-7.041.03-.036.084-.129.063-.194-.708-2.139.155-3.909.187-4.097.817.242.95-.243 3.551 1.337l.449.27c.188.112.129.048.317.034A13.544 13.544 0 0 1 16 7.723c1.136.015 2.273.178 3.404.484l.145.015c-.013-.002.04-.009.127-.062 3.248-1.968 3.132-1.324 4.003-1.608.032.188.883 1.987.182 4.099-.095.291 2.816 2.956 1.203 7.235-.659 1.746-2.32 3.957-6.487 4.578v.001c.534.814 1.176 1.247 1.173 2.927V32C26.738 30.312 32 23.499 32 16c0-8.788-7.212-16-16-16z"/></symbol><symbol id="icon-hero-ice-cream-face1" viewBox="0 0 33 32"><path fill="#fff" style="fill:var(--color1,#fff)" d="M12.569 20.739c1.386-.473 1.894-2.721 1.133-5.02s-2.502-3.781-3.888-3.308c-1.386.473-1.894 2.72-1.133 5.02s2.502 3.781 3.888 3.308z"/><path style="fill:var(--color2,#000)" d="M9.874 12.597c1.261-.43 2.929 1.027 3.643 3.184s.251 4.341-1.01 4.771c-1.261.43-2.929-1.027-3.643-3.184s-.25-4.341 1.01-4.771zm-.123-.373c-1.488.508-2.049 2.867-1.254 5.269s2.646 3.939 4.134 3.431c1.488-.508 2.049-2.867 1.254-5.269s-2.645-3.939-4.134-3.431z"/><path fill="#fff" style="fill:var(--color1,#fff)" d="M21.017 17.857c1.386-.473 1.894-2.721 1.133-5.02s-2.502-3.781-3.888-3.308-1.894 2.721-1.133 5.02c.761 2.3 2.502 3.781 3.888 3.308z"/><path style="fill:var(--color2,#000)" d="M18.322 9.715c1.261-.43 2.929 1.027 3.643 3.184s.251 4.341-1.01 4.771c-1.261.43-2.929-1.027-3.643-3.184s-.25-4.341 1.01-4.771zm-.123-.373c-1.488.508-2.049 2.867-1.254 5.269s2.646 3.939 4.134 3.431c1.488-.508 2.049-2.867 1.254-5.269s-2.645-3.939-4.134-3.431zM11.868 18.626c.778-.265 1.068-1.51.647-2.78s-1.391-2.085-2.169-1.819c-.778.265-1.068 1.51-.647 2.78s1.391 2.085 2.169 1.819z"/><path style="fill:var(--color2,#000)" d="M10.366 14.089c.743-.254 1.679.543 2.088 1.778s.137 2.443-.606 2.697-1.679-.543-2.088-1.778-.136-2.444.606-2.697zm-.041-.125c-.812.277-1.119 1.559-.688 2.863s1.439 2.137 2.251 1.86c.812-.277 1.119-1.559.688-2.863s-1.439-2.137-2.251-1.86zM20.319 15.743c.778-.265 1.068-1.51.647-2.78s-1.391-2.085-2.169-1.819c-.778.265-1.068 1.51-.647 2.78s1.391 2.085 2.169 1.819z"/><path style="fill:var(--color2,#000)" d="M18.817 11.206c.743-.254 1.679.543 2.088 1.778s.137 2.443-.606 2.697-1.679-.544-2.088-1.778-.136-2.444.606-2.697zm-.041-.124c-.812.277-1.119 1.559-.688 2.863s1.439 2.137 2.251 1.86 1.119-1.559.688-2.863c-.432-1.304-1.439-2.137-2.251-1.86z"/><path fill="#fff" style="fill:var(--color1,#fff)" d="M10.548 16.656c.468-.16.682-.79.477-1.408s-.75-.989-1.218-.83c-.468.16-.682.79-.477 1.408s.75.989 1.218.83zM18.911 13.525c.468-.16.682-.79.477-1.408s-.75-.989-1.218-.83c-.468.16-.682.79-.477 1.408s.75.989 1.218.83z"/><path style="fill:var(--color2,#000)" d="M7.543 10.918c.207-.755.574-1.532 1.321-1.86.696-.305 1.476-.114 2.145.174.458.198.806-.506.345-.704-.891-.385-1.912-.598-2.831-.179-.967.441-1.468 1.419-1.739 2.409-.134.49.625.646.759.16zM16.456 7.099c1.943.221 3.943-.05 5.753-.807.459-.191.215-.939-.247-.746-1.68.702-3.54.988-5.349.782-.493-.057-.654.713-.158.77z"/><path fill="none" stroke="#000" style="stroke:var(--color2,#000)" stroke-miterlimit="10" stroke-width=".831" d="M19.259 25.719c-6.323 2.157-12.479.789-13.752-3.055"/><path fill="none" stroke="#000" style="stroke:var(--color2,#000)" stroke-miterlimit="10" stroke-width=".831" d="M28.402 14.853c1.273 3.845-2.821 8.71-9.144 10.867M4.262 23.434l2.406-1.789M27.36 15l2.042-.419"/></symbol><symbol id="icon-hero-ice-cream-face2" viewBox="0 0 33 32"><path fill="#fff" style="fill:var(--color1,#fff)" d="M11.929 16.413c1.182.693 3.044-.335 4.159-2.296s1.06-4.112-.122-4.805c-1.182-.693-3.044.335-4.159 2.296s-1.06 4.112.122 4.805z"/><path style="fill:var(--color2,#000)" d="M15.876 9.471c1.076.63 1.101 2.715.056 4.554s-2.837 2.859-3.912 2.229c-1.076-.63-1.101-2.715-.056-4.554s2.838-2.859 3.912-2.229zm.181-.318c-1.269-.743-3.241.315-4.406 2.364s-1.081 4.312.188 5.056c1.269.743 3.241-.315 4.406-2.364s1.082-4.312-.188-5.056z"/><path fill="#fff" style="fill:var(--color1,#fff)" d="M19.131 20.636c1.182.693 3.044-.335 4.159-2.296s1.06-4.112-.122-4.805c-1.182-.693-3.044.335-4.159 2.296s-1.06 4.112.122 4.805z"/><path style="fill:var(--color2,#000)" d="M23.078 13.693c1.076.63 1.101 2.715.056 4.554s-2.837 2.859-3.912 2.229c-1.076-.63-1.101-2.715-.056-4.554s2.838-2.859 3.912-2.229zm.181-.318c-1.269-.743-3.241.315-4.406 2.364s-1.081 4.312.188 5.056c1.269.743 3.241-.315 4.406-2.364s1.082-4.312-.188-5.056zM12.952 14.611c.663.389 1.7-.174 2.316-1.257s.577-2.276-.086-2.665c-.663-.389-1.7.174-2.316 1.257s-.577 2.276.086 2.665z"/><path style="fill:var(--color2,#000)" d="M15.152 10.743c.634.371.662 1.528.064 2.581s-1.599 1.606-2.233 1.235c-.634-.371-.662-1.528-.064-2.581s1.601-1.605 2.233-1.235zm.06-.106c-.692-.406-1.766.168-2.398 1.28s-.584 2.342.108 2.748c.692.406 1.766-.168 2.398-1.28s.584-2.342-.108-2.748zM20.157 18.834c.663.389 1.7-.174 2.316-1.257s.577-2.276-.086-2.665c-.663-.389-1.7.174-2.316 1.257s-.577 2.276.086 2.665z"/><path style="fill:var(--color2,#000)" d="M22.356 14.965c.634.371.662 1.528.064 2.581s-1.599 1.606-2.233 1.235-.662-1.529-.064-2.581c.598-1.052 1.601-1.606 2.233-1.235zm.06-.106c-.692-.406-1.766.168-2.398 1.28s-.584 2.342.108 2.748c.692.406 1.766-.168 2.398-1.279s.584-2.342-.108-2.748z"/><path fill="#fff" style="fill:var(--color1,#fff)" d="M14.372 13.112c.399.234.965-.004 1.265-.53s.219-1.143-.18-1.377c-.399-.234-.965.004-1.265.53s-.219 1.143.18 1.377zM21.576 17.334c.399.234.965-.004 1.265-.53s.219-1.143-.18-1.377c-.399-.234-.965.004-1.265.53s-.219 1.143.18 1.377z"/><path style="fill:var(--color2,#000)" d="M14.965 6.548a4.335 4.335 0 0 1 3.286 1.925c.261.389.89.028.628-.363-.904-1.35-2.313-2.18-3.919-2.296-.463-.034-.458.7.004.734zM22.481 10.954a4.338 4.338 0 0 1 3.286 1.925c.261.389.89.028.628-.363-.904-1.35-2.313-2.18-3.919-2.296-.463-.034-.458.7.004.734z"/><path fill="none" stroke="#000" style="stroke:var(--color2,#000)" stroke-miterlimit="10" stroke-width=".661" d="M12.899 23.272c-5.391-3.16-8.25-8.379-6.386-11.657M26.037 23.058c-1.864 3.278-7.746 3.374-13.137.214M5.215 11.206l2.719.604M25.291 22.409l1.55 1.191"/></symbol><symbol id="icon-hero-ice-cream-face3" viewBox="0 0 32 32"><path fill="#fff" style="fill:var(--color1,#fff)" d="M11.812 15.692c1.095.78 3.001-.06 4.257-1.877s1.386-3.922.291-4.702c-1.095-.78-3.001.06-4.257 1.877s-1.386 3.922-.291 4.702z"/><path style="fill:var(--color2,#000)" d="M16.257 9.26c.996.71.844 2.748-.334 4.452s-3.014 2.543-4.01 1.833c-.996-.71-.844-2.748.334-4.452s3.015-2.542 4.01-1.833zm.204-.295c-1.175-.837-3.192.022-4.504 1.921s-1.423 4.116-.247 4.953c1.175.837 3.192-.022 4.504-1.921s1.424-4.115.247-4.953z"/><path fill="#fff" style="fill:var(--color1,#fff)" d="M18.486 20.447c1.095.78 3.001-.06 4.257-1.877s1.386-3.922.291-4.702c-1.095-.78-3.001.06-4.257 1.877s-1.386 3.922-.291 4.702z"/><path style="fill:var(--color2,#000)" d="M22.931 14.015c.996.71.844 2.748-.334 4.452s-3.014 2.543-4.01 1.833c-.996-.71-.844-2.748.334-4.452s3.015-2.542 4.01-1.833zm.204-.294c-1.175-.837-3.192.023-4.504 1.921s-1.423 4.116-.247 4.953 3.192-.022 4.504-1.921c1.312-1.898 1.424-4.115.247-4.953zM14.032 13.316c.614.438 1.675-.021 2.368-1.024s.758-2.171.143-2.609c-.614-.438-1.675.021-2.368 1.024s-.758 2.171-.143 2.609z"/><path style="fill:var(--color2,#000)" d="M16.509 9.732c.587.418.516 1.551-.158 2.526s-1.699 1.428-2.286 1.009c-.587-.418-.516-1.551.158-2.526s1.7-1.427 2.286-1.009zm.068-.098c-.641-.457-1.738.009-2.45 1.039s-.77 2.236-.129 2.693 1.738-.009 2.45-1.039c.712-1.03.77-2.236.129-2.693zM20.802 18.141c.614.438 1.675-.021 2.368-1.024s.758-2.171.143-2.609c-.614-.438-1.675.021-2.368 1.024s-.758 2.171-.143 2.609z"/><path style="fill:var(--color2,#000)" d="M23.28 14.556c.587.418.516 1.551-.158 2.526s-1.699 1.428-2.286 1.009-.516-1.551.158-2.526c.674-.975 1.7-1.427 2.286-1.009zm.068-.098c-.641-.457-1.738.009-2.45 1.039s-.77 2.236-.129 2.693c.641.457 1.738-.009 2.45-1.039s.77-2.236.129-2.693z"/><path fill="#fff" style="fill:var(--color1,#fff)" d="M13.702 12.861c.287.205.733.063.996-.317s.242-.853-.045-1.058c-.287-.205-.733-.063-.996.317s-.242.853.045 1.058zM20.501 17.853c.287.205.733.063.996-.317s.242-.853-.045-1.058c-.287-.205-.733-.063-.996.317s-.242.853.045 1.058z"/><path style="fill:var(--color2,#000)" d="M15.386 6.322c1.353.05 2.557.705 3.356 1.814.27.374.816-.086.548-.458a4.96 4.96 0 0 0-3.844-2.072c-.455-.016-.518.701-.059.717zM23.254 11.196c1.276.466 2.219 1.47 2.648 2.769.145.439.788.135.645-.3a5.022 5.022 0 0 0-3.055-3.148c-.429-.156-.669.521-.238.679z"/><path fill="none" stroke="#000" style="stroke:var(--color2,#000)" stroke-miterlimit="10" stroke-width=".621" d="M11.914 22.434c-4.995-3.559-7.341-8.906-5.242-11.943M24.759 23.379c-2.1 3.037-7.85 2.614-12.845-.945M5.439 9.978l2.603.829M24.086 22.681l1.412 1.299"/><path fill="none" stroke="#000" style="stroke:var(--color2,#000)" stroke-miterlimit="10" stroke-width=".414" d="M14.343 6.949c-.098.159-.32.563-.321 1.127-.001.492.166.856.256 1.021M14.73 7.292a2.421 2.421 0 0 0-.146.848c-.001.37.076.645.116.768M15.331 7.775a1.185 1.185 0 0 0-.032 1.115M25.816 14.977a2.113 2.113 0 0 1-.935.69 2.063 2.063 0 0 1-1.032.103M25.368 14.725a2.37 2.37 0 0 1-.736.428 2.415 2.415 0 0 1-.751.151M24.715 14.316a1.145 1.145 0 0 1-1.022.409"/><path style="fill:var(--color2,#000);stroke:var(--color2,#000)" stroke="#000" stroke-miterlimit="10" stroke-width=".621" d="M12.069 22.827c.433-.352.321-1.224-.25-1.948s-1.385-1.026-1.818-.674c-.433.352-.321 1.224.25 1.948s1.385 1.026 1.818.674z"/><path style="fill:var(--color2,#000);stroke:var(--color2,#000)" stroke="#000" stroke-miterlimit="10" stroke-width=".621" d="M11.599 23.308c.881.628 1.672 1.027 1.766.892s-.545-.755-1.426-1.383c-.881-.628-1.672-1.027-1.766-.892s.545.755 1.426 1.383z"/><path style="fill:var(--color2,#000);stroke:var(--color2,#000)" stroke="#000" stroke-miterlimit="10" stroke-width=".621" d="M13.038 24.165c.832.384 1.692.279 1.922-.234s-.259-1.239-1.091-1.623c-.832-.384-1.692-.279-1.922.234s.259 1.239 1.091 1.623z"/></symbol><symbol id="icon-logo" viewBox="0 0 30 32"><path d="M15.226 17.082c1.415-3.784-1.515-5.856-3.457-7.217-.371-.278-.743-.538-1.043-.776-.537-.447-.933-1.037-1.141-1.699s-.217-1.37-.029-2.037a.394.394 0 0 0-.308-.491.407.407 0 0 0-.216.016 6.565 6.565 0 0 0-1.801 1.058c-.518.393-.937.898-1.226 1.476s-.44 1.213-.441 1.858c-.366.285-.69.618-.962.992a3.6 3.6 0 0 0-.709 2.324c-.595.538-1.038 1.22-1.286 1.977s-.292 1.566-.129 2.345a1.232 1.232 0 0 0-.106 2.06c.221.164.49.251.767.25h.026v2.152c0 .218.088.428.245.582s.369.241.591.241h.65l1.058 9.04a.83.83 0 0 0 .828.732h4.404c.206 0 .404-.075.557-.21s.251-.321.275-.522l1.058-9.04h.65c.222 0 .434-.087.591-.241s.245-.364.245-.582v-2.152h.026c.336 0 .658-.131.895-.366a1.242 1.242 0 0 0 0-1.773l-.011.004zm-9.531-6.866c.535 1.98 2.599 2.76 4.482 3.455a.41.41 0 0 0 .492-.051.403.403 0 0 0 .074-.483.401.401 0 0 0-.279-.197c-2.027-.758-3.939-1.464-4.084-3.488-.034-.556.072-1.112.308-1.619s.596-.947 1.047-1.284c.282-.232.586-.437.906-.615a4.604 4.604 0 0 0 0 .761c.043.58.204 1.146.473 1.663s.641.976 1.094 1.349c.308.26.691.527 1.114.813.976.692 2.087 1.464 2.792 2.511a3.859 3.859 0 0 1 .404 3.715h-1.641c-3.383 0-7.27-.922-8.039-3.506-.152-.532-.151-1.095.004-1.626s.457-1.009.873-1.379l-.019-.018zM8.74 22.693l1.24 1.222-1.24 1.222-1.24-1.23 1.24-1.215zm2.844 3.21-1.025 1.01-1.24-1.222 1.24-1.219 1.077 1.058-.052.373zM8.74 28.706 7.5 27.484l1.24-1.222 1.24 1.222-1.24 1.222zm-.568-3.008-1.24 1.222L5.9 25.903l-.045-.366 1.077-1.058 1.24 1.219zM6.36 27.484l-.249.245-.063-.556.312.311zm-.13 1.251.702-.692 1.363 1.354a.845.845 0 0 0 .026.081H6.316l-.085-.743zm4.322-.691.702.692-.085.732H9.108l1.444-1.424zm.817-.315-.249-.245.316-.311-.067.556zm.371-3.199-.62-.622.787-.776-.167 1.398zm-1.192-1.178-1.177-1.157h2.354l-1.177 1.157zm-3.62 0-1.177-1.157h2.354l-1.177 1.157zm4.01 7.817h-4.4c-.007-.001-.013-.004-.018-.008s-.008-.011-.008-.017l-.104-.878h4.663l-.1.878c-.001.007-.004.014-.01.018s-.012.007-.02.007h-.004zm3.405-12.751h-1.292a.406.406 0 0 0-.444.397c0 .056.012.111.035.161s.056.096.098.134a.403.403 0 0 0 .311.102h.46v2.152c-.001.007-.004.014-.01.018s-.012.007-.02.007H3.987c-.007 0-.014-.003-.02-.007s-.009-.011-.01-.018v-2.152h7.355a.404.404 0 0 0 .366-.397.393.393 0 0 0-.105-.268.413.413 0 0 0-.261-.129H3.144a.46.46 0 0 1-.501-.452.446.446 0 0 1 .15-.335.454.454 0 0 1 .351-.117h.843a.404.404 0 0 0 .366-.397.393.393 0 0 0-.105-.268.413.413 0 0 0-.261-.129h-.743a3.873 3.873 0 0 1 .81-3.185c.26.798.928 1.889 2.599 2.756 1.571.809 3.65 1.222 6.178 1.222h1.485a.46.46 0 0 1 .501.452.446.446 0 0 1-.15.335.454.454 0 0 1-.351.117h.026z"/><path d="m16.964 29.152-.292.449.006.004.287-.453zm3.149.151.535-.012-.014-.62-.611.104.09.528zm.037 1.648.136.518.409-.108-.009-.422-.535.012zm-4.133.079.12-.522-.003-.001-.117.523zm-2.04-.911.347-.408-.001-.001-.346.409zm-.737-1.673.536.003v-.003h-.536zm.256-1.172-.481-.236v.001l.481.236zm1.643-1.402.19.501.002-.001-.192-.5zm5.262-.136.534.042.035-.452-.44-.109-.129.52zm-.131 1.679-.1.526.587.111.046-.596-.534-.042zm-1.428-.687c-.804 0-1.48.086-1.973.303a1.616 1.616 0 0 0-.651.489 1.26 1.26 0 0 0-.255.774h1.071c0-.063.015-.098.038-.127a.554.554 0 0 1 .228-.155c.288-.126.784-.212 1.542-.212v-1.071zm-2.879 1.566c0 .551.247 1.006.709 1.307l.585-.897a.435.435 0 0 1-.222-.409h-1.071zm.715 1.31c.438.277 1.015.381 1.662.381v-1.071c-.559 0-.899-.095-1.089-.215l-.573.905zm1.662.382a11.1 11.1 0 0 0 1.863-.154l-.179-1.056c-.545.092-1.106.139-1.684.139v1.071zm1.238-.671.037 1.648 1.071-.024-.037-1.648-1.071.024zm.435 1.118a7.964 7.964 0 0 1-2.029.244v1.071c.821 0 1.589-.092 2.302-.279l-.273-1.036zm-2.029.244c-.757 0-1.369-.059-1.847-.169l-.24 1.044c.582.134 1.281.197 2.087.197v-1.071zm-1.85-.17c-.511-.114-.88-.236-1.127-.356l-.47.963c.354.173.814.316 1.363.439l.234-1.045zm-1.126-.356a3.258 3.258 0 0 1-.684-.44l-.693.817c.267.227.571.421.907.585l.47-.963zm-.685-.441c-.364-.308-.55-.709-.548-1.262l-1.071-.005c-.004.842.301 1.556.927 2.086l.691-.818zm-.547-1.264c0-.36.071-.669.202-.936l-.962-.471c-.211.43-.311.903-.311 1.407h1.071zm.201-.936c.244-.495.674-.88 1.352-1.137l-.38-1.002c-.884.336-1.549.885-1.933 1.666l.961.473zm1.354-1.138c.713-.274 1.508-.414 2.392-.414v-1.071c-.999 0-1.926.159-2.776.485l.384 1zm2.392-.414c.902 0 1.751.1 2.549.298l.258-1.04a11.605 11.605 0 0 0-2.807-.33v1.071zm2.144-.263-.131 1.679 1.068.083.131-1.679-1.068-.083zm.503 1.194a8.256 8.256 0 0 0-1.528-.161v1.071c.377 0 .818.046 1.328.142l.2-1.052zm5.226.856-.003.536.544.003-.006-.544-.536.006zm-.23-.696-.364.393.005.004.36-.397zm-1.334.052.371.386.004-.004-.375-.383zm-.324.633-.529-.087-.102.619.627.003.003-.536zm3.938 2.856.324.427.193-.146.018-.241-.534-.04zm-1.156.429-.115-.523-.003.001.118.522zm-4.017-.146-.183.504.004.002.178-.505zm-.915-.487-.332.42.003.003.003.003.326-.425zm-.612-.769-.48.237.001.002.479-.24zm.627-3.248.356.4-.356-.4zm4.896-.581.214-.491-.005-.002-.209.493zm1.23 1.13-.482.234.001.003.48-.237zm.209.937.534.039.001-.019v-.019h-.536zm-.063.863-.003.536.501.002.036-.499-.534-.039zm-4.242-.021.003-.536-.699-.003.178.676.518-.137zm.607.748-.264.466.002.001.261-.468zm3.253-.183v-.536h-.107l-.099.041.206.494zm.283 0 .534.04.043-.576h-.577v.536zm-1.615-1.523c-.004-.387-.093-.803-.406-1.087l-.72.794c-.006-.006.006.001.021.047a.87.87 0 0 1 .033.257l1.071-.011zm-.401-1.082c-.281-.261-.65-.347-1.013-.347v1.071c.209 0 .272.05.284.061l.729-.785zm-1.013-.348c-.399 0-.77.125-1.06.409l.75.765c.058-.057.144-.103.31-.103v-1.071zm-1.056.406a1.63 1.63 0 0 0-.482.932l1.057.174a.558.558 0 0 1 .167-.333l-.742-.773zm.044 1.555 1.888.011.006-1.071-1.888-.011-.006 1.071zm3.618 1.893c-.117.089-.404.213-.948.333l.23 1.046c.565-.124 1.049-.286 1.364-.525l-.647-.854zm-.951.334a6.805 6.805 0 0 1-1.498.175v1.071c.566 0 1.145-.068 1.735-.201l-.237-1.045zm-1.498.175c-.505 0-.92-.024-1.252-.068l-.143 1.062c.394.053.86.078 1.395.078v-1.071zm-1.252-.069a4.855 4.855 0 0 1-.971-.236l-.357 1.01c.389.137.784.233 1.184.287l.143-1.062zm-.966-.234a2.862 2.862 0 0 1-.772-.408l-.652.85c.305.234.66.421 1.059.565l.365-1.007zm-.766-.403a1.708 1.708 0 0 1-.465-.588l-.958.479c.189.377.44.697.759.949l.665-.84zm-.464-.586c-.113-.228-.18-.521-.18-.898h-1.071c0 .502.09.966.291 1.372l.96-.475zm-.18-.898c0-.377.068-.71.196-1.006l-.983-.427a3.57 3.57 0 0 0-.285 1.432h1.071zm.196-1.005c.135-.311.3-.541.487-.708l-.712-.8a3.056 3.056 0 0 0-.758 1.081l.983.427zm.488-.708c.576-.513 1.454-.811 2.719-.811v-1.071c-1.42 0-2.592.334-3.432 1.083l.713.8zm2.719-.811c.568 0 1.103.108 1.611.324l.418-.986a5.144 5.144 0 0 0-2.029-.409v1.071zm1.606.321c.474.207.78.5.962.873l.963-.468c-.307-.631-.82-1.091-1.497-1.387l-.428.982zm.963.876c.1.203.154.433.154.699h1.071c0-.417-.086-.811-.265-1.173l-.96.474zm.156.661-.063.863 1.068.078.063-.863-1.068-.078zm.474.366-4.242-.021-.005 1.071 4.242.021.005-1.071zm-4.763.651c.125.475.431.835.861 1.078l.527-.933c-.212-.12-.31-.258-.352-.418l-1.036.273zm.863 1.079c.434.243.978.34 1.585.34v-1.071c-.509 0-.848-.084-1.062-.204l-.523.935zm1.585.34c.651 0 1.367-.176 2.136-.496l-.412-.989c-.689.287-1.26.414-1.724.414v1.071zm1.93-.455h.282v-1.071h-.282v1.071zm-.251-.575-.099 1.329 1.068.08.099-1.329-1.068-.08z"/></symbol><symbol id="icon-telegram" viewBox="0 0 44 32"><path d="m17.343 21.048-.675 8.86c.966 0 1.384-.387 1.885-.852l4.527-4.038 9.381 6.412c1.72.895 2.933.424 3.397-1.477l6.157-26.929.002-.002c.546-2.374-.92-3.302-2.596-2.72L3.227 13.235c-2.47.895-2.433 2.18-.42 2.762l9.253 2.686L33.554 6.131c1.012-.625 1.931-.279 1.175.346l-17.386 14.57z"/></symbol></defs></svg>