<svg aria-hidden="true" style="position: absolute; width: 0; height: 0; overflow: hidden;" version="1.1" xmlns="http://www.w3.org/2000/svg" xmlns:xlink="http://www.w3.org/1999/xlink">
<defs>
<symbol id="icon-arrow" viewBox="0 0 82 32">
<path d="M81.414 17.414c0.781-0.781 0.781-2.047 0-2.828l-12.728-12.728c-0.781-0.781-2.047-0.781-2.828 0s-0.781 2.047 0 2.828l11.314 11.314-11.314 11.314c-0.781 0.781-0.781 2.047 0 2.828s2.047 0.781 2.828 0l12.728-12.728zM0 18h80v-4h-80v4z"></path>
</symbol>
<symbol id="icon-burger-menu" viewBox="0 0 50 32">
<path stroke-linejoin="miter" stroke-linecap="round" stroke-miterlimit="4" stroke-width="4.5714" d="M2.286 2.286h45.714"></path>
<path stroke-linejoin="miter" stroke-linecap="round" stroke-miterlimit="4" stroke-width="4.5714" d="M2.286 16h45.714"></path>
<path stroke-linejoin="miter" stroke-linecap="round" stroke-miterlimit="4" stroke-width="4.5714" d="M2.286 29.714h45.714"></path>
</symbol>
<symbol id="icon-button-greather" viewBox="0 0 22 32">
<path stroke-linejoin="round" stroke-linecap="round" stroke-miterlimit="4" stroke-width="6.4" d="M6.167 3.796l12.83 12.218-12.83 12.218"></path>
</symbol>
<symbol id="icon-close" viewBox="0 0 32 32">
<path d="M17.253 16l7.369-7.369c0.146-0.17 0.222-0.389 0.213-0.613s-0.101-0.436-0.26-0.594c-0.158-0.158-0.37-0.251-0.594-0.26s-0.442 0.067-0.612 0.213l-7.369 7.369-7.369-7.378c-0.167-0.167-0.394-0.261-0.631-0.261s-0.464 0.094-0.631 0.261c-0.167 0.167-0.261 0.394-0.261 0.631s0.094 0.464 0.261 0.631l7.378 7.369-7.378 7.369c-0.093 0.080-0.169 0.178-0.222 0.288s-0.083 0.23-0.088 0.353c-0.005 0.123 0.016 0.245 0.061 0.359s0.112 0.218 0.199 0.304c0.087 0.087 0.19 0.154 0.304 0.199s0.236 0.065 0.359 0.060c0.122-0.005 0.243-0.035 0.353-0.088s0.208-0.129 0.288-0.222l7.378-7.369 7.369 7.369c0.17 0.146 0.389 0.222 0.612 0.213s0.436-0.101 0.594-0.26c0.158-0.158 0.251-0.37 0.26-0.594s-0.067-0.442-0.213-0.612l-7.369-7.369z"></path>
</symbol>
<symbol id="icon-facebook" viewBox="0 0 16 32">
<path d="M14.143 15.972h-4.034v14.865h-6.112v-14.865h-2.907v-5.224h2.907v-3.381c0-2.418 1.142-6.203 6.166-6.203l4.527 0.019v5.071h-3.285c-0.539 0-1.296 0.271-1.296 1.424v3.075h4.567l-0.534 5.219z"></path>
</symbol>
<symbol id="icon-github" viewBox="0 0 32 32">
<path d="M16 0c-8.788 0-16 7.212-16 16 0 7.499 5.262 14.312 12.25 16v-5.293c-0.692 0.152-1.33 0.156-2.034-0.052-0.946-0.279-1.714-0.909-2.284-1.869-0.364-0.613-1.008-1.278-1.68-1.23l-0.165-1.868c1.453-0.124 2.711 0.886 3.457 2.14 0.332 0.558 0.713 0.884 1.203 1.029 0.473 0.14 0.982 0.072 1.574-0.137 0.149-1.186 0.692-1.63 1.102-2.255v-0.001c-4.167-0.622-5.828-2.832-6.488-4.578-0.874-2.317-0.405-5.212 1.14-7.041 0.030-0.036 0.084-0.129 0.063-0.194-0.708-2.139 0.155-3.909 0.187-4.097 0.817 0.242 0.95-0.243 3.551 1.337l0.449 0.27c0.188 0.112 0.129 0.048 0.317 0.034 1.086-0.295 2.23-0.458 3.358-0.472 1.136 0.015 2.273 0.178 3.404 0.484l0.145 0.015c-0.013-0.002 0.040-0.009 0.127-0.062 3.248-1.968 3.132-1.324 4.003-1.608 0.032 0.188 0.883 1.987 0.182 4.099-0.095 0.291 2.816 2.956 1.203 7.235-0.659 1.746-2.32 3.957-6.487 4.578v0.001c0.534 0.814 1.176 1.247 1.173 2.927v6.608c6.988-1.688 12.25-8.501 12.25-16 0-8.788-7.212-16-16-16v0z"></path>
</symbol>
<symbol id="icon-hero-ice-cream-face1" viewBox="0 0 35 32">
<path d="M13.369 21.857c1.491-0.477 2.034-2.742 1.213-5.059s-2.695-3.809-4.185-3.332c-1.491 0.477-2.034 2.742-1.213 5.059s2.695 3.809 4.185 3.332z"></path>
<path d="M10.464 13.653c1.356-0.434 3.151 1.035 3.921 3.208s0.274 4.374-1.082 4.808c-1.356 0.434-3.151-1.035-3.921-3.208s-0.273-4.375 1.082-4.808zM10.331 13.278c-1.6 0.512-2.201 2.889-1.344 5.31s2.85 3.969 4.449 3.457c1.6-0.512 2.201-2.889 1.344-5.31s-2.848-3.969-4.449-3.457z"></path>
<path d="M22.462 18.953c1.491-0.477 2.034-2.742 1.213-5.059s-2.694-3.809-4.185-3.332-2.034 2.742-1.213 5.059c0.821 2.317 2.695 3.809 4.185 3.332z"></path>
<path d="M19.557 10.75c1.356-0.434 3.151 1.035 3.921 3.208s0.274 4.374-1.082 4.808-3.151-1.035-3.921-3.208c-0.77-2.173-0.273-4.375 1.082-4.808zM19.424 10.374c-1.6 0.512-2.201 2.889-1.344 5.31s2.85 3.969 4.449 3.457c1.6-0.512 2.201-2.889 1.344-5.31s-2.848-3.969-4.449-3.457z"></path>
<path d="M12.615 19.728c0.836-0.267 1.147-1.522 0.693-2.801s-1.499-2.1-2.335-1.833c-0.836 0.267-1.147 1.522-0.693 2.801s1.499 2.1 2.335 1.833z"></path>
<path d="M10.996 15.156c0.799-0.256 1.806 0.548 2.247 1.791s0.149 2.462-0.65 2.718c-0.799 0.256-1.806-0.548-2.247-1.791s-0.148-2.462 0.65-2.718zM10.952 15.031c-0.873 0.279-1.202 1.571-0.737 2.885s1.55 2.154 2.423 1.874c0.873-0.279 1.202-1.571 0.737-2.885s-1.55-2.154-2.423-1.874z"></path>
<path d="M21.709 16.824c0.836-0.267 1.147-1.522 0.693-2.801s-1.499-2.1-2.335-1.833c-0.836 0.267-1.147 1.522-0.693 2.801s1.499 2.1 2.335 1.833z"></path>
<path d="M20.089 12.253c0.799-0.256 1.806 0.548 2.247 1.791s0.149 2.462-0.65 2.718c-0.799 0.256-1.806-0.548-2.247-1.791s-0.148-2.462 0.65-2.718zM20.045 12.127c-0.873 0.279-1.202 1.571-0.737 2.885s1.55 2.154 2.423 1.874c0.873-0.279 1.202-1.571 0.737-2.885s-1.55-2.154-2.423-1.874z"></path>
<path d="M11.191 17.743c0.503-0.161 0.732-0.796 0.512-1.419s-0.807-0.997-1.311-0.836c-0.503 0.161-0.732 0.796-0.512 1.419s0.807 0.997 1.311 0.836z"></path>
<path d="M20.196 14.589c0.503-0.161 0.732-0.796 0.512-1.419s-0.807-0.997-1.311-0.836c-0.503 0.161-0.732 0.796-0.512 1.419s0.807 0.997 1.311 0.836z"></path>
<path d="M7.961 11.966c0.221-0.762 0.614-1.546 1.418-1.878 0.749-0.308 1.589-0.115 2.309 0.176 0.493 0.2 0.866-0.511 0.37-0.711-0.959-0.389-2.059-0.604-3.047-0.181-1.040 0.445-1.577 1.433-1.866 2.432-0.143 0.494 0.674 0.652 0.817 0.162z"></path>
<path d="M17.553 8.116c2.092 0.224 4.245-0.049 6.191-0.814 0.493-0.193 0.23-0.949-0.267-0.753-1.806 0.709-3.809 0.997-5.756 0.789-0.531-0.058-0.702 0.72-0.168 0.778z"></path>
<path stroke-linejoin="miter" stroke-linecap="butt" stroke-miterlimit="10" stroke-width="0.5854" d="M20.568 26.874c-6.805 2.173-13.432 0.795-14.802-3.078"></path>
<path stroke-linejoin="miter" stroke-linecap="butt" stroke-miterlimit="10" stroke-width="0.5854" d="M30.41 15.926c1.37 3.873-3.037 8.774-9.842 10.947"></path>
<path stroke-linejoin="miter" stroke-linecap="butt" stroke-miterlimit="10" stroke-width="0.5854" d="M4.427 24.572l2.589-1.803"></path>
<path stroke-linejoin="miter" stroke-linecap="butt" stroke-miterlimit="10" stroke-width="0.5854" d="M29.289 16.075l2.197-0.423"></path>
</symbol>
<symbol id="icon-hero-ice-cream-face2" viewBox="0 0 35 32">
<path d="M12.353 17.514c1.267 0.696 3.265-0.337 4.462-2.306s1.142-4.129-0.125-4.825c-1.267-0.696-3.265 0.337-4.462 2.306s-1.142 4.129 0.125 4.825z"></path>
<path d="M16.593 10.543c1.152 0.633 1.178 2.727 0.055 4.573s-3.045 2.871-4.197 2.238c-1.152-0.633-1.178-2.727-0.055-4.573s3.046-2.871 4.197-2.238zM16.787 10.224c-1.36-0.747-3.476 0.316-4.727 2.373s-1.163 4.33 0.196 5.077c1.36 0.747 3.476-0.316 4.727-2.373s1.165-4.33-0.196-5.077z"></path>
<path d="M20.081 21.754c1.267 0.696 3.265-0.337 4.462-2.306s1.142-4.129-0.125-4.825c-1.267-0.696-3.265 0.337-4.462 2.306s-1.142 4.129 0.125 4.825z"></path>
<path d="M24.321 14.783c1.152 0.633 1.178 2.727 0.055 4.573s-3.045 2.871-4.197 2.238c-1.152-0.633-1.178-2.727-0.055-4.573s3.046-2.871 4.197-2.238zM24.515 14.464c-1.36-0.747-3.476 0.316-4.727 2.373s-1.163 4.331 0.196 5.077c1.359 0.747 3.476-0.316 4.727-2.373s1.165-4.33-0.196-5.077z"></path>
<path d="M13.453 15.705c0.711 0.39 1.823-0.175 2.484-1.262s0.621-2.285-0.089-2.676-1.823 0.175-2.484 1.262c-0.661 1.087-0.621 2.285 0.089 2.676z"></path>
<path d="M15.816 11.82c0.679 0.373 0.708 1.535 0.066 2.592s-1.717 1.613-2.396 1.24c-0.679-0.373-0.708-1.535-0.066-2.592s1.718-1.612 2.396-1.24zM15.88 11.714c-0.742-0.407-1.894 0.168-2.573 1.285s-0.629 2.352 0.113 2.76c0.742 0.407 1.894-0.168 2.573-1.285s0.629-2.352-0.113-2.76z"></path>
<path d="M21.181 19.945c0.711 0.39 1.823-0.175 2.484-1.262s0.621-2.285-0.089-2.676c-0.711-0.39-1.823 0.175-2.484 1.262s-0.621 2.285 0.089 2.676z"></path>
<path d="M23.544 16.060c0.679 0.373 0.708 1.535 0.066 2.592s-1.717 1.613-2.396 1.24c-0.679-0.373-0.708-1.535-0.066-2.592s1.718-1.612 2.396-1.24zM23.608 15.954c-0.742-0.407-1.894 0.168-2.573 1.285s-0.629 2.352 0.113 2.76c0.742 0.407 1.894-0.168 2.573-1.285s0.629-2.352-0.113-2.76z"></path>
<path d="M14.978 14.2c0.428 0.235 1.035-0.004 1.357-0.533s0.236-1.148-0.192-1.383c-0.428-0.235-1.035 0.004-1.357 0.533s-0.236 1.148 0.192 1.383z"></path>
<path d="M22.706 18.44c0.428 0.235 1.035-0.004 1.357-0.533s0.236-1.148-0.192-1.383c-0.428-0.235-1.035 0.004-1.357 0.533s-0.236 1.148 0.192 1.383z"></path>
<path d="M15.614 7.608c1.426 0.096 2.721 0.811 3.522 1.936 0.279 0.391 0.956 0.027 0.676-0.366-0.967-1.359-2.477-2.193-4.201-2.309-0.497-0.034-0.494 0.706 0.003 0.739z"></path>
<path d="M23.678 12.032c1.426 0.096 2.721 0.811 3.522 1.936 0.279 0.391 0.956 0.027 0.676-0.366-0.967-1.359-2.477-2.193-4.201-2.309-0.498-0.034-0.494 0.706 0.003 0.739z"></path>
<path stroke-linejoin="miter" stroke-linecap="butt" stroke-miterlimit="10" stroke-width="0.4638" d="M13.397 24.401c-5.784-3.173-8.851-8.414-6.851-11.706"></path>
<path stroke-linejoin="miter" stroke-linecap="butt" stroke-miterlimit="10" stroke-width="0.4638" d="M27.491 24.186c-2 3.292-8.31 3.388-14.093 0.215"></path>
<path stroke-linejoin="miter" stroke-linecap="butt" stroke-miterlimit="10" stroke-width="0.4638" d="M5.153 12.286l2.917 0.607"></path>
<path stroke-linejoin="miter" stroke-linecap="butt" stroke-miterlimit="10" stroke-width="0.4638" d="M26.692 23.535l1.663 1.196"></path>
</symbol>
<symbol id="icon-hero-ice-cream-face3" viewBox="0 0 34 32">
<path d="M12.371 16.267c1.17 0.781 3.208-0.060 4.552-1.878s1.485-3.925 0.315-4.706c-1.17-0.781-3.208 0.060-4.552 1.878s-1.485 3.925-0.315 4.706z"></path>
<path d="M17.128 9.83c1.064 0.71 0.899 2.75-0.361 4.455s-3.223 2.545-4.288 1.834c-1.064-0.71-0.899-2.75 0.361-4.455s3.224-2.544 4.288-1.834zM17.346 9.536c-1.256-0.838-3.412 0.023-4.816 1.922s-1.524 4.119-0.269 4.957c1.256 0.838 3.412-0.022 4.816-1.922s1.525-4.118 0.269-4.957z"></path>
<path d="M19.507 21.027c1.17 0.781 3.208-0.060 4.552-1.878s1.485-3.925 0.315-4.706c-1.17-0.781-3.208 0.060-4.552 1.878s-1.485 3.925-0.315 4.706z"></path>
<path d="M24.264 14.59c1.064 0.711 0.899 2.75-0.361 4.455s-3.223 2.545-4.288 1.834c-1.064-0.711-0.899-2.75 0.361-4.455s3.224-2.544 4.288-1.834zM24.482 14.295c-1.256-0.838-3.412 0.023-4.816 1.922s-1.524 4.119-0.269 4.957c1.256 0.838 3.412-0.023 4.816-1.922s1.525-4.118 0.269-4.957z"></path>
<path d="M14.745 13.89c0.656 0.438 1.79-0.021 2.532-1.025s0.812-2.173 0.155-2.611-1.79 0.021-2.532 1.025c-0.742 1.004-0.812 2.173-0.155 2.611z"></path>
<path d="M17.396 10.303c0.627 0.419 0.551 1.552-0.171 2.528s-1.817 1.429-2.444 1.010-0.551-1.552 0.171-2.528c0.721-0.976 1.818-1.428 2.444-1.010zM17.469 10.205c-0.685-0.457-1.858 0.009-2.62 1.040s-0.825 2.238-0.14 2.695c0.685 0.457 1.858-0.009 2.62-1.040s0.825-2.238 0.14-2.695z"></path>
<path d="M21.984 18.718c0.656 0.438 1.79-0.021 2.532-1.025s0.812-2.173 0.155-2.611c-0.656-0.438-1.79 0.021-2.532 1.025s-0.812 2.173-0.155 2.611z"></path>
<path d="M24.636 15.131c0.627 0.419 0.551 1.552-0.171 2.528s-1.817 1.429-2.444 1.010c-0.627-0.419-0.551-1.552 0.171-2.528s1.818-1.428 2.444-1.010zM24.708 15.033c-0.685-0.457-1.858 0.009-2.62 1.040s-0.825 2.238-0.14 2.695c0.685 0.457 1.858-0.009 2.62-1.040s0.825-2.238 0.14-2.695z"></path>
<path d="M14.393 13.435c0.307 0.205 0.784 0.063 1.065-0.317s0.259-0.854-0.047-1.059c-0.307-0.205-0.784-0.063-1.065 0.317s-0.26 0.854 0.048 1.059z"></path>
<path d="M21.663 18.431c0.307 0.205 0.784 0.063 1.065-0.317s0.259-0.854-0.048-1.059c-0.307-0.205-0.784-0.063-1.065 0.317s-0.259 0.854 0.048 1.059z"></path>
<path d="M16.195 6.89c1.447 0.049 2.734 0.706 3.587 1.816 0.288 0.375 0.873-0.086 0.587-0.459-0.964-1.256-2.473-2.019-4.109-2.075-0.487-0.016-0.555 0.703-0.065 0.718z"></path>
<path d="M24.607 11.767c1.364 0.467 2.371 1.472 2.828 2.774 0.155 0.44 0.843 0.135 0.69-0.301-0.519-1.478-1.723-2.627-3.262-3.153-0.459-0.156-0.717 0.522-0.256 0.68z"></path>
<path stroke-linejoin="miter" stroke-linecap="butt" stroke-miterlimit="10" stroke-width="0.4344" d="M12.482 23.015c-5.341-3.562-7.85-8.913-5.605-11.953"></path>
<path stroke-linejoin="miter" stroke-linecap="butt" stroke-miterlimit="10" stroke-width="0.4344" d="M26.217 23.961c-2.245 3.040-8.394 2.616-13.735-0.946"></path>
<path stroke-linejoin="miter" stroke-linecap="butt" stroke-miterlimit="10" stroke-width="0.4344" d="M5.558 10.549l2.783 0.83"></path>
<path stroke-linejoin="miter" stroke-linecap="butt" stroke-miterlimit="10" stroke-width="0.4344" d="M25.499 23.262l1.509 1.3"></path>
<path stroke-linejoin="miter" stroke-linecap="butt" stroke-miterlimit="10" stroke-width="0.4344" d="M12.648 23.408c0.463-0.352 0.343-1.225-0.267-1.95s-1.481-1.026-1.944-0.674c-0.463 0.352-0.343 1.225 0.267 1.95s1.481 1.026 1.944 0.674z"></path>
<path stroke-linejoin="miter" stroke-linecap="butt" stroke-miterlimit="10" stroke-width="0.4344" d="M12.145 23.89c0.942 0.629 1.788 1.028 1.888 0.893s-0.583-0.755-1.525-1.384c-0.942-0.629-1.788-1.028-1.888-0.893s0.583 0.755 1.525 1.384z"></path>
<path stroke-linejoin="miter" stroke-linecap="butt" stroke-miterlimit="10" stroke-width="0.4344" d="M13.684 24.747c0.889 0.384 1.809 0.279 2.055-0.234s-0.277-1.24-1.166-1.624-1.809-0.279-2.055 0.234c-0.245 0.513 0.277 1.24 1.166 1.624z"></path>
</symbol>
<symbol id="icon-logo" viewBox="0 0 30 32">
<path d="M15.226 17.082c1.415-3.784-1.515-5.856-3.457-7.217-0.371-0.278-0.743-0.538-1.043-0.776-0.537-0.447-0.933-1.037-1.141-1.699s-0.217-1.37-0.029-2.037c0.019-0.070 0.019-0.144-0.001-0.213s-0.060-0.132-0.114-0.181c-0.054-0.049-0.121-0.083-0.193-0.097s-0.147-0.009-0.216 0.016c-0.654 0.255-1.262 0.612-1.801 1.058-0.518 0.393-0.937 0.898-1.226 1.476s-0.44 1.213-0.441 1.858c-0.366 0.285-0.69 0.618-0.962 0.992-0.499 0.672-0.75 1.492-0.709 2.324-0.595 0.538-1.038 1.22-1.286 1.977s-0.292 1.566-0.129 2.345c-0.237 0.141-0.42 0.355-0.521 0.608s-0.116 0.533-0.041 0.795c0.075 0.262 0.235 0.493 0.456 0.657s0.49 0.251 0.767 0.25h0.026v2.152c0 0.218 0.088 0.428 0.245 0.582s0.369 0.241 0.591 0.241h0.65l1.058 9.040c0.022 0.201 0.119 0.387 0.272 0.523s0.351 0.21 0.556 0.209h4.404c0.206-0 0.404-0.075 0.557-0.21s0.251-0.321 0.275-0.522l1.058-9.040h0.65c0.222 0 0.434-0.087 0.591-0.241s0.245-0.364 0.245-0.582v-2.152h0.026c0.336 0 0.658-0.131 0.895-0.366s0.371-0.551 0.371-0.883c0.002-0.165-0.030-0.329-0.094-0.482s-0.158-0.291-0.277-0.408l-0.011 0.004zM5.695 10.216c0.535 1.98 2.599 2.76 4.482 3.455 0.051 0.031 0.107 0.050 0.166 0.057s0.119 0 0.175-0.018c0.056-0.019 0.108-0.049 0.151-0.090s0.076-0.090 0.098-0.145c0.021-0.055 0.030-0.113 0.026-0.172s-0.021-0.115-0.050-0.166c-0.029-0.051-0.069-0.095-0.117-0.129s-0.104-0.057-0.162-0.068c-2.027-0.758-3.939-1.464-4.084-3.488-0.034-0.556 0.072-1.112 0.308-1.619s0.596-0.947 1.047-1.284c0.282-0.232 0.586-0.437 0.906-0.615-0.021 0.253-0.021 0.508 0 0.761 0.043 0.58 0.204 1.146 0.473 1.663s0.641 0.976 1.094 1.349c0.308 0.26 0.691 0.527 1.114 0.813 0.976 0.692 2.087 1.464 2.792 2.511 0.376 0.537 0.611 1.158 0.681 1.807s-0.024 1.305-0.277 1.908h-1.641c-3.383 0-7.27-0.922-8.039-3.506-0.152-0.532-0.151-1.095 0.004-1.626s0.457-1.009 0.873-1.379l-0.019-0.018zM8.74 22.693l1.24 1.222-1.24 1.222-1.24-1.23 1.24-1.215zM11.584 25.903l-1.025 1.010-1.24-1.222 1.24-1.219 1.077 1.058-0.052 0.373zM8.74 28.706l-1.24-1.222 1.24-1.222 1.24 1.222-1.24 1.222zM8.172 25.698l-1.24 1.222-1.032-1.017-0.045-0.366 1.077-1.058 1.24 1.219zM6.36 27.484l-0.249 0.245-0.063-0.556 0.312 0.311zM6.23 28.735l0.702-0.692 1.363 1.354c0.007 0.027 0.016 0.054 0.026 0.081h-2.005l-0.085-0.743zM10.552 28.044l0.702 0.692-0.085 0.732h-2.061l1.444-1.424zM11.369 27.729l-0.249-0.245 0.316-0.311-0.067 0.556zM11.74 24.53l-0.62-0.622 0.787-0.776-0.167 1.398zM10.548 23.352l-1.177-1.157h2.354l-1.177 1.157zM6.928 23.352l-1.177-1.157h2.354l-1.177 1.157zM10.938 31.169h-4.4c-0.007-0.001-0.013-0.004-0.018-0.008s-0.008-0.011-0.008-0.017l-0.104-0.878h4.663l-0.1 0.878c-0.001 0.007-0.004 0.014-0.010 0.018s-0.012 0.007-0.020 0.007h-0.004zM14.343 18.418h-1.292c-0.056-0.005-0.113 0.001-0.166 0.019s-0.103 0.046-0.145 0.083c-0.042 0.037-0.075 0.083-0.098 0.134s-0.035 0.106-0.035 0.161c0 0.056 0.012 0.111 0.035 0.161s0.056 0.096 0.098 0.134c0.042 0.037 0.091 0.066 0.145 0.083s0.11 0.024 0.166 0.019h0.46v2.152c-0.001 0.007-0.004 0.014-0.010 0.018s-0.012 0.007-0.020 0.007h-9.494c-0.007 0-0.014-0.003-0.020-0.007s-0.009-0.011-0.010-0.018v-2.152h7.355c0.1-0.009 0.193-0.055 0.261-0.129s0.105-0.169 0.105-0.268-0.037-0.195-0.105-0.268c-0.068-0.073-0.161-0.119-0.261-0.129h-8.168c-0.064 0.006-0.128-0.002-0.188-0.022s-0.116-0.053-0.163-0.095c-0.047-0.043-0.085-0.094-0.111-0.152s-0.039-0.12-0.039-0.183c0-0.063 0.013-0.125 0.039-0.183s0.063-0.109 0.111-0.152c0.047-0.043 0.103-0.075 0.163-0.095s0.125-0.028 0.188-0.022h0.843c0.1-0.009 0.193-0.055 0.261-0.129s0.105-0.169 0.105-0.268-0.037-0.195-0.105-0.268c-0.068-0.073-0.161-0.119-0.261-0.129h-0.743c-0.106-0.557-0.089-1.13 0.051-1.68s0.399-1.063 0.759-1.505c0.26 0.798 0.928 1.889 2.599 2.756 1.571 0.809 3.65 1.222 6.178 1.222h1.485c0.064-0.006 0.128 0.002 0.188 0.022s0.116 0.053 0.163 0.095c0.047 0.043 0.085 0.094 0.111 0.152s0.039 0.12 0.039 0.183c0 0.063-0.013 0.125-0.039 0.183s-0.063 0.109-0.111 0.152c-0.047 0.043-0.103 0.075-0.163 0.095s-0.125 0.028-0.188 0.022h0.026z"></path>
<path d="M16.964 29.152l-0.292 0.449 0.006 0.004 0.287-0.453zM20.113 29.303l0.535-0.012-0.014-0.62-0.611 0.104 0.090 0.528zM20.15 30.951l0.136 0.518 0.409-0.108-0.009-0.422-0.535 0.012zM16.017 31.030l0.12-0.522-0.003-0.001-0.117 0.523zM13.977 30.119l0.347-0.408-0.001-0.001-0.346 0.409zM13.24 28.446l0.536 0.003v-0.003h-0.536zM13.496 27.274l-0.481-0.236-0 0.001 0.481 0.236zM15.139 25.872l0.19 0.501 0.002-0.001-0.192-0.5zM20.401 25.736l0.534 0.042 0.035-0.452-0.44-0.109-0.129 0.52zM20.27 27.415l-0.1 0.526 0.587 0.111 0.046-0.596-0.534-0.042zM18.842 26.728c-0.804 0-1.48 0.086-1.973 0.303-0.253 0.111-0.483 0.268-0.651 0.489-0.173 0.228-0.255 0.494-0.255 0.774h1.071c0-0.063 0.015-0.098 0.038-0.127 0.028-0.037 0.090-0.095 0.228-0.155 0.288-0.126 0.784-0.212 1.542-0.212v-1.071zM15.963 28.294c0 0.551 0.247 1.006 0.709 1.307l0.585-0.897c-0.159-0.104-0.222-0.221-0.222-0.409h-1.071zM16.678 29.604c0.438 0.277 1.015 0.381 1.662 0.381v-1.071c-0.559 0-0.899-0.095-1.089-0.215l-0.573 0.905zM18.34 29.986c0.636 0 1.257-0.051 1.863-0.154l-0.179-1.056c-0.545 0.092-1.106 0.139-1.684 0.139v1.071zM19.578 29.315l0.037 1.648 1.071-0.024-0.037-1.648-1.071 0.024zM20.013 30.433c-0.612 0.161-1.288 0.244-2.029 0.244v1.071c0.821 0 1.589-0.092 2.302-0.279l-0.273-1.036zM17.984 30.677c-0.757 0-1.369-0.059-1.847-0.169l-0.24 1.044c0.582 0.134 1.281 0.197 2.087 0.197v-1.071zM16.134 30.507c-0.511-0.114-0.88-0.236-1.127-0.356l-0.47 0.963c0.354 0.173 0.814 0.316 1.363 0.439l0.234-1.045zM15.008 30.151c-0.264-0.129-0.491-0.276-0.684-0.44l-0.693 0.817c0.267 0.227 0.571 0.421 0.907 0.585l0.47-0.963zM14.323 29.71c-0.364-0.308-0.55-0.709-0.548-1.262l-1.071-0.005c-0.004 0.842 0.301 1.556 0.927 2.086l0.691-0.818zM13.776 28.446c0-0.36 0.071-0.669 0.202-0.936l-0.962-0.471c-0.211 0.43-0.311 0.903-0.311 1.407h1.071zM13.977 27.51c0.244-0.495 0.674-0.88 1.352-1.137l-0.38-1.002c-0.884 0.336-1.549 0.885-1.933 1.666l0.961 0.473zM15.331 26.372c0.713-0.274 1.508-0.414 2.392-0.414v-1.071c-0.999 0-1.926 0.159-2.776 0.485l0.384 1zM17.723 25.958c0.902 0 1.751 0.1 2.549 0.298l0.258-1.040c-0.889-0.221-1.826-0.33-2.807-0.33v1.071zM19.867 25.695l-0.131 1.679 1.068 0.083 0.131-1.679-1.068-0.083zM20.37 26.889c-0.557-0.106-1.068-0.161-1.528-0.161v1.071c0.377 0 0.818 0.046 1.328 0.142l0.2-1.052zM25.596 27.745l-0.003 0.536 0.544 0.003-0.006-0.544-0.536 0.006zM25.366 27.049l-0.364 0.393 0.005 0.004 0.36-0.397zM24.032 27.101l0.371 0.386 0.004-0.004-0.375-0.383zM23.708 27.734l-0.529-0.087-0.102 0.619 0.627 0.003 0.003-0.536zM27.646 30.59l0.324 0.427 0.193-0.146 0.018-0.241-0.534-0.040zM26.49 31.019l-0.115-0.523-0.003 0.001 0.118 0.522zM22.473 30.873l-0.183 0.504 0.004 0.002 0.178-0.505zM21.558 30.386l-0.332 0.42 0.003 0.003 0.003 0.003 0.326-0.425zM20.946 29.617l-0.48 0.237 0.001 0.002 0.479-0.24zM21.573 26.369l0.356 0.4 0-0-0.356-0.4zM26.469 25.788l0.214-0.491-0.005-0.002-0.209 0.493zM27.699 26.918l-0.482 0.234 0.001 0.003 0.48-0.237zM27.908 27.855l0.534 0.039 0.001-0.019v-0.019h-0.536zM27.845 28.718l-0.003 0.536 0.501 0.002 0.036-0.499-0.534-0.039zM23.603 28.697l0.003-0.536-0.699-0.003 0.178 0.676 0.518-0.137zM24.21 29.445l-0.264 0.466 0.002 0.001 0.261-0.468zM27.463 29.262v-0.536h-0.107l-0.099 0.041 0.206 0.494zM27.746 29.262l0.534 0.040 0.043-0.576h-0.577v0.536zM26.131 27.739c-0.004-0.387-0.093-0.803-0.406-1.087l-0.72 0.794c-0.006-0.006 0.006 0.001 0.021 0.047 0.016 0.049 0.032 0.131 0.033 0.257l1.071-0.011zM25.73 26.657c-0.281-0.261-0.65-0.347-1.013-0.347v1.071c0.209 0 0.272 0.050 0.284 0.061l0.729-0.785zM24.717 26.309c-0.399 0-0.77 0.125-1.060 0.409l0.75 0.765c0.058-0.057 0.144-0.103 0.31-0.103v-1.071zM23.661 26.715c-0.264 0.253-0.423 0.572-0.482 0.932l1.057 0.174c0.024-0.149 0.082-0.252 0.167-0.333l-0.742-0.773zM23.705 28.27l1.888 0.011 0.006-1.071-1.888-0.011-0.006 1.071zM27.323 30.163c-0.117 0.089-0.404 0.213-0.948 0.333l0.23 1.046c0.565-0.124 1.049-0.286 1.364-0.525l-0.647-0.854zM26.372 30.497c-0.519 0.117-1.018 0.175-1.498 0.175v1.071c0.566 0 1.145-0.068 1.735-0.201l-0.237-1.045zM24.874 30.672c-0.505 0-0.92-0.024-1.252-0.068l-0.143 1.062c0.394 0.053 0.86 0.078 1.395 0.078v-1.071zM23.622 30.603c-0.325-0.044-0.649-0.122-0.971-0.236l-0.357 1.010c0.389 0.137 0.784 0.233 1.184 0.287l0.143-1.062zM22.656 30.369c-0.313-0.114-0.568-0.251-0.772-0.408l-0.652 0.85c0.305 0.234 0.66 0.421 1.059 0.565l0.365-1.007zM21.89 29.966c-0.184-0.146-0.34-0.338-0.465-0.588l-0.958 0.479c0.189 0.377 0.44 0.697 0.759 0.949l0.665-0.84zM21.426 29.38c-0.113-0.228-0.18-0.521-0.18-0.898h-1.071c0 0.502 0.090 0.966 0.291 1.372l0.96-0.475zM21.246 28.482c0-0.377 0.068-0.71 0.196-1.006l-0.983-0.427c-0.192 0.443-0.285 0.923-0.285 1.432h1.071zM21.442 27.477c0.135-0.311 0.3-0.541 0.487-0.708l-0.712-0.8c-0.322 0.287-0.572 0.653-0.758 1.081l0.983 0.427zM21.93 26.769c0.576-0.513 1.454-0.811 2.719-0.811v-1.071c-1.42 0-2.592 0.334-3.432 1.083l0.713 0.8zM24.649 25.958c0.568 0 1.103 0.108 1.611 0.324l0.418-0.986c-0.643-0.273-1.321-0.409-2.029-0.409v1.071zM26.255 26.279c0.474 0.207 0.78 0.5 0.962 0.873l0.963-0.468c-0.307-0.631-0.82-1.091-1.497-1.387l-0.428 0.982zM27.218 27.155c0.1 0.203 0.154 0.433 0.154 0.699h1.071c0-0.417-0.086-0.811-0.265-1.173l-0.96 0.474zM27.374 27.816l-0.063 0.863 1.068 0.078 0.063-0.863-1.068-0.078zM27.848 28.182l-4.242-0.021-0.005 1.071 4.242 0.021 0.005-1.071zM23.085 28.833c0.125 0.475 0.431 0.835 0.861 1.078l0.527-0.933c-0.212-0.12-0.31-0.258-0.352-0.418l-1.036 0.273zM23.948 29.912c0.434 0.243 0.978 0.34 1.585 0.34v-1.071c-0.509 0-0.848-0.084-1.062-0.204l-0.523 0.935zM25.533 30.252c0.651 0 1.367-0.176 2.136-0.496l-0.412-0.989c-0.689 0.287-1.26 0.414-1.724 0.414v1.071zM27.463 29.797h0.282v-1.071h-0.282v1.071zM27.212 29.222l-0.099 1.329 1.068 0.080 0.099-1.329-1.068-0.080z"></path>
</symbol>
<symbol id="icon-telegram" viewBox="0 0 44 32">
<path d="M17.343 21.048l-0.675 8.86c0.966 0 1.384-0.387 1.885-0.852l4.527-4.038 9.381 6.412c1.72 0.895 2.933 0.424 3.397-1.477l6.157-26.929 0.002-0.002c0.546-2.374-0.92-3.302-2.596-2.72l-36.194 12.933c-2.47 0.895-2.433 2.18-0.42 2.762l9.253 2.686 21.494-12.552c1.012-0.625 1.931-0.279 1.175 0.346l-17.386 14.57z"></path>
</symbol>
</defs>
</svg>
