<svg aria-hidden="true" style="position: absolute; width: 0; height: 0; overflow: hidden;" version="1.1" xmlns="http://www.w3.org/2000/svg" xmlns:xlink="http://www.w3.org/1999/xlink">
<defs>
<symbol id="icon-arrow" viewBox="0 0 82 32">
<path d="M81.414 17.414c0.781-0.781 0.781-2.047 0-2.828l-12.728-12.728c-0.781-0.781-2.047-0.781-2.828 0s-0.781 2.047 0 2.828l11.314 11.314-11.314 11.314c-0.781 0.781-0.781 2.047 0 2.828s2.047 0.781 2.828 0l12.728-12.728zM0 18h80v-4h-80v4z"></path>
</symbol>
<symbol id="icon-burger-menu" viewBox="0 0 50 32">
<path  stroke-linejoin="miter" stroke-linecap="round" stroke-miterlimit="4" stroke-width="4.5714" d="M2.286 2.286h45.714"></path>
<path  stroke-linejoin="miter" stroke-linecap="round" stroke-miterlimit="4" stroke-width="4.5714" d="M2.286 16h45.714"></path>
<path  stroke-linejoin="miter" stroke-linecap="round" stroke-miterlimit="4" stroke-width="4.5714" d="M2.286 29.714h45.714"></path>
</symbol>

<symbol id="icon-button-greather" viewBox="0 0 22 32">
<path fill="none" stroke="#000000" style="stroke: var(--color1, #000000)" stroke-linejoin="round" stroke-linecap="round" stroke-miterlimit="4" stroke-width="6.4" d="M6.167 3.796l12.83 12.218-12.83 12.218"></path>
</symbol>
<symbol id="icon-close" viewBox="0 0 32 32">
<path d="M17.253 16l7.369-7.369c0.146-0.17 0.222-0.389 0.213-0.613s-0.101-0.436-0.26-0.594c-0.158-0.158-0.37-0.251-0.594-0.26s-0.442 0.067-0.612 0.213l-7.369 7.369-7.369-7.378c-0.167-0.167-0.394-0.261-0.631-0.261s-0.464 0.094-0.631 0.261c-0.167 0.167-0.261 0.394-0.261 0.631s0.094 0.464 0.261 0.631l7.378 7.369-7.378 7.369c-0.093 0.080-0.169 0.178-0.222 0.288s-0.083 0.23-0.088 0.353c-0.005 0.123 0.016 0.245 0.061 0.359s0.112 0.218 0.199 0.304c0.087 0.087 0.19 0.154 0.304 0.199s0.236 0.065 0.359 0.060c0.122-0.005 0.243-0.035 0.353-0.088s0.208-0.129 0.288-0.222l7.378-7.369 7.369 7.369c0.17 0.146 0.389 0.222 0.612 0.213s0.436-0.101 0.594-0.26c0.158-0.158 0.251-0.37 0.26-0.594s-0.067-0.442-0.213-0.612l-7.369-7.369z"></path>
</symbol>
<symbol id="icon-facebook" viewBox="0 0 16 32">
<path d="M14.143 15.972h-4.034v14.865h-6.112v-14.865h-2.907v-5.224h2.907v-3.381c0-2.418 1.142-6.203 6.166-6.203l4.527 0.019v5.071h-3.285c-0.539 0-1.296 0.271-1.296 1.424v3.075h4.567l-0.534 5.219z"></path>
</symbol>
<symbol id="icon-github" viewBox="0 0 32 32">
<path d="M16 0c-8.788 0-16 7.212-16 16 0 7.499 5.262 14.312 12.25 16v-5.293c-0.692 0.152-1.33 0.156-2.034-0.052-0.946-0.279-1.714-0.909-2.284-1.869-0.364-0.613-1.008-1.278-1.68-1.23l-0.165-1.868c1.453-0.124 2.711 0.886 3.457 2.14 0.332 0.558 0.713 0.884 1.203 1.029 0.473 0.14 0.982 0.072 1.574-0.137 0.149-1.186 0.692-1.63 1.102-2.255v-0.001c-4.167-0.622-5.828-2.832-6.488-4.578-0.874-2.317-0.405-5.212 1.14-7.041 0.030-0.036 0.084-0.129 0.063-0.194-0.708-2.139 0.155-3.909 0.187-4.097 0.817 0.242 0.95-0.243 3.551 1.337l0.449 0.27c0.188 0.112 0.129 0.048 0.317 0.034 1.086-0.295 2.23-0.458 3.358-0.472 1.136 0.015 2.273 0.178 3.404 0.484l0.145 0.015c-0.013-0.002 0.040-0.009 0.127-0.062 3.248-1.968 3.132-1.324 4.003-1.608 0.032 0.188 0.883 1.987 0.182 4.099-0.095 0.291 2.816 2.956 1.203 7.235-0.659 1.746-2.32 3.957-6.487 4.578v0.001c0.534 0.814 1.176 1.247 1.173 2.927v6.608c6.988-1.688 12.25-8.501 12.25-16 0-8.788-7.212-16-16-16v0z"></path>
</symbol>
<symbol id="icon-hero-ice-cream-face1" viewBox="0 0 33 32">
<path fill="#fff" style="fill: var(--color1, #fff)" d="M12.569 20.739c1.386-0.473 1.894-2.721 1.133-5.020s-2.502-3.781-3.888-3.308c-1.386 0.473-1.894 2.72-1.133 5.020s2.502 3.781 3.888 3.308z"></path>
<path fill="#000" style="fill: var(--color2, #000)" d="M9.874 12.597c1.261-0.43 2.929 1.027 3.643 3.184s0.251 4.341-1.010 4.771c-1.261 0.43-2.929-1.027-3.643-3.184s-0.25-4.341 1.010-4.771zM9.751 12.224c-1.488 0.508-2.049 2.867-1.254 5.269s2.646 3.939 4.134 3.431c1.488-0.508 2.049-2.867 1.254-5.269s-2.645-3.939-4.134-3.431z"></path>
<path fill="#fff" style="fill: var(--color1, #fff)" d="M21.017 17.857c1.386-0.473 1.894-2.721 1.133-5.020s-2.502-3.781-3.888-3.308-1.894 2.721-1.133 5.020c0.761 2.3 2.502 3.781 3.888 3.308z"></path>
<path fill="#000" style="fill: var(--color2, #000)" d="M18.322 9.715c1.261-0.43 2.929 1.027 3.643 3.184s0.251 4.341-1.010 4.771c-1.261 0.43-2.929-1.027-3.643-3.184s-0.25-4.341 1.010-4.771zM18.199 9.342c-1.488 0.508-2.049 2.867-1.254 5.269s2.646 3.939 4.134 3.431c1.488-0.508 2.049-2.867 1.254-5.269s-2.645-3.939-4.134-3.431z"></path>
<path fill="#000" style="fill: var(--color2, #000)" d="M11.868 18.626c0.778-0.265 1.068-1.51 0.647-2.78s-1.391-2.085-2.169-1.819c-0.778 0.265-1.068 1.51-0.647 2.78s1.391 2.085 2.169 1.819z"></path>
<path fill="#000" style="fill: var(--color2, #000)" d="M10.366 14.089c0.743-0.254 1.679 0.543 2.088 1.778s0.137 2.443-0.606 2.697c-0.743 0.254-1.679-0.543-2.088-1.778s-0.136-2.444 0.606-2.697zM10.325 13.964c-0.812 0.277-1.119 1.559-0.688 2.863s1.439 2.137 2.251 1.86c0.812-0.277 1.119-1.559 0.688-2.863s-1.439-2.137-2.251-1.86z"></path>
<path fill="#000" style="fill: var(--color2, #000)" d="M20.319 15.743c0.778-0.265 1.068-1.51 0.647-2.78s-1.391-2.085-2.169-1.819c-0.778 0.265-1.068 1.51-0.647 2.78s1.391 2.085 2.169 1.819z"></path>
<path fill="#000" style="fill: var(--color2, #000)" d="M18.817 11.206c0.743-0.254 1.679 0.543 2.088 1.778s0.137 2.443-0.606 2.697c-0.743 0.254-1.679-0.544-2.088-1.778s-0.136-2.444 0.606-2.697zM18.776 11.082c-0.812 0.277-1.119 1.559-0.688 2.863s1.439 2.137 2.251 1.86 1.119-1.559 0.688-2.863c-0.432-1.304-1.439-2.137-2.251-1.86z"></path>
<path fill="#fff" style="fill: var(--color1, #fff)" d="M10.548 16.656c0.468-0.16 0.682-0.79 0.477-1.408s-0.75-0.989-1.218-0.83c-0.468 0.16-0.682 0.79-0.477 1.408s0.75 0.989 1.218 0.83z"></path>
<path fill="#fff" style="fill: var(--color1, #fff)" d="M18.911 13.525c0.468-0.16 0.682-0.79 0.477-1.408s-0.75-0.989-1.218-0.83c-0.468 0.16-0.682 0.79-0.477 1.408s0.75 0.989 1.218 0.83z"></path>
<path fill="#000" style="fill: var(--color2, #000)" d="M7.543 10.918c0.207-0.755 0.574-1.532 1.321-1.86 0.696-0.305 1.476-0.114 2.145 0.174 0.458 0.198 0.806-0.506 0.345-0.704-0.891-0.385-1.912-0.598-2.831-0.179-0.967 0.441-1.468 1.419-1.739 2.409-0.134 0.49 0.625 0.646 0.759 0.16z"></path>
<path fill="#000" style="fill: var(--color2, #000)" d="M16.456 7.099c1.943 0.221 3.943-0.050 5.753-0.807 0.459-0.191 0.215-0.939-0.247-0.746-1.68 0.702-3.54 0.988-5.349 0.782-0.493-0.057-0.654 0.713-0.158 0.77z"></path>
<path fill="none" stroke="#000" style="stroke: var(--color2, #000)" stroke-linejoin="miter" stroke-linecap="butt" stroke-miterlimit="10" stroke-width="0.8312" d="M19.259 25.719c-6.323 2.157-12.479 0.789-13.752-3.055"></path>
<path fill="none" stroke="#000" style="stroke: var(--color2, #000)" stroke-linejoin="miter" stroke-linecap="butt" stroke-miterlimit="10" stroke-width="0.8312" d="M28.402 14.853c1.273 3.845-2.821 8.71-9.144 10.867"></path>
<path fill="none" stroke="#000" style="stroke: var(--color2, #000)" stroke-linejoin="miter" stroke-linecap="butt" stroke-miterlimit="10" stroke-width="0.8312" d="M4.262 23.434l2.406-1.789"></path>
<path fill="none" stroke="#000" style="stroke: var(--color2, #000)" stroke-linejoin="miter" stroke-linecap="butt" stroke-miterlimit="10" stroke-width="0.8312" d="M27.36 15l2.042-0.419"></path>
</symbol>
<symbol id="icon-hero-ice-cream-face2" viewBox="0 0 33 32">
<path fill="#fff" style="fill: var(--color1, #fff)" d="M11.929 16.413c1.182 0.693 3.044-0.335 4.159-2.296s1.060-4.112-0.122-4.805c-1.182-0.693-3.044 0.335-4.159 2.296s-1.060 4.112 0.122 4.805z"></path>
<path fill="#000" style="fill: var(--color2, #000)" d="M15.876 9.471c1.076 0.63 1.101 2.715 0.056 4.554s-2.837 2.859-3.912 2.229c-1.076-0.63-1.101-2.715-0.056-4.554s2.838-2.859 3.912-2.229zM16.057 9.153c-1.269-0.743-3.241 0.315-4.406 2.364s-1.081 4.312 0.188 5.056c1.269 0.743 3.241-0.315 4.406-2.364s1.082-4.312-0.188-5.056z"></path>
<path fill="#fff" style="fill: var(--color1, #fff)" d="M19.131 20.636c1.182 0.693 3.044-0.335 4.159-2.296s1.060-4.112-0.122-4.805c-1.182-0.693-3.044 0.335-4.159 2.296s-1.060 4.112 0.122 4.805z"></path>
<path fill="#000" style="fill: var(--color2, #000)" d="M23.078 13.693c1.076 0.63 1.101 2.715 0.056 4.554s-2.837 2.859-3.912 2.229c-1.076-0.63-1.101-2.715-0.056-4.554s2.838-2.859 3.912-2.229zM23.259 13.375c-1.269-0.743-3.241 0.315-4.406 2.364s-1.081 4.312 0.188 5.056c1.269 0.743 3.241-0.315 4.406-2.364s1.082-4.312-0.188-5.056z"></path>
<path fill="#000" style="fill: var(--color2, #000)" d="M12.952 14.611c0.663 0.389 1.7-0.174 2.316-1.257s0.577-2.276-0.086-2.665c-0.663-0.389-1.7 0.174-2.316 1.257s-0.577 2.276 0.086 2.665z"></path>
<path fill="#000" style="fill: var(--color2, #000)" d="M15.152 10.743c0.634 0.371 0.662 1.528 0.064 2.581s-1.599 1.606-2.233 1.235c-0.634-0.371-0.662-1.528-0.064-2.581s1.601-1.605 2.233-1.235zM15.212 10.637c-0.692-0.406-1.766 0.168-2.398 1.28s-0.584 2.342 0.108 2.748c0.692 0.406 1.766-0.168 2.398-1.28s0.584-2.342-0.108-2.748z"></path>
<path fill="#000" style="fill: var(--color2, #000)" d="M20.157 18.834c0.663 0.389 1.7-0.174 2.316-1.257s0.577-2.276-0.086-2.665c-0.663-0.389-1.7 0.174-2.316 1.257s-0.577 2.276 0.086 2.665z"></path>
<path fill="#000" style="fill: var(--color2, #000)" d="M22.356 14.965c0.634 0.371 0.662 1.528 0.064 2.581s-1.599 1.606-2.233 1.235-0.662-1.529-0.064-2.581c0.598-1.052 1.601-1.606 2.233-1.235zM22.416 14.859c-0.692-0.406-1.766 0.168-2.398 1.28s-0.584 2.342 0.108 2.748c0.692 0.406 1.766-0.168 2.398-1.279s0.584-2.342-0.108-2.748z"></path>
<path fill="#fff" style="fill: var(--color1, #fff)" d="M14.372 13.112c0.399 0.234 0.965-0.004 1.265-0.53s0.219-1.143-0.18-1.377c-0.399-0.234-0.965 0.004-1.265 0.53s-0.219 1.143 0.18 1.377z"></path>
<path fill="#fff" style="fill: var(--color1, #fff)" d="M21.576 17.334c0.399 0.234 0.965-0.004 1.265-0.53s0.219-1.143-0.18-1.377c-0.399-0.234-0.965 0.004-1.265 0.53s-0.219 1.143 0.18 1.377z"></path>
<path fill="#000" style="fill: var(--color2, #000)" d="M14.965 6.548c1.329 0.096 2.537 0.807 3.286 1.925 0.261 0.389 0.89 0.028 0.628-0.363-0.904-1.35-2.313-2.18-3.919-2.296-0.463-0.034-0.458 0.7 0.004 0.734z"></path>
<path fill="#000" style="fill: var(--color2, #000)" d="M22.481 10.954c1.329 0.097 2.537 0.807 3.286 1.925 0.261 0.389 0.89 0.028 0.628-0.363-0.904-1.35-2.313-2.18-3.919-2.296-0.463-0.034-0.458 0.7 0.004 0.734z"></path>
<path fill="none" stroke="#000" style="stroke: var(--color2, #000)" stroke-linejoin="miter" stroke-linecap="butt" stroke-miterlimit="10" stroke-width="0.6607" d="M12.899 23.272c-5.391-3.16-8.25-8.379-6.386-11.657"></path>
<path fill="none" stroke="#000" style="stroke: var(--color2, #000)" stroke-linejoin="miter" stroke-linecap="butt" stroke-miterlimit="10" stroke-width="0.6607" d="M26.037 23.058c-1.864 3.278-7.746 3.374-13.137 0.214"></path>
<path fill="none" stroke="#000" style="stroke: var(--color2, #000)" stroke-linejoin="miter" stroke-linecap="butt" stroke-miterlimit="10" stroke-width="0.6607" d="M5.215 11.206l2.719 0.604"></path>
<path fill="none" stroke="#000" style="stroke: var(--color2, #000)" stroke-linejoin="miter" stroke-linecap="butt" stroke-miterlimit="10" stroke-width="0.6607" d="M25.291 22.409l1.55 1.191"></path>
</symbol>
<symbol id="icon-hero-ice-cream-face3" viewBox="0 0 32 32">
<path fill="#fff" style="fill: var(--color1, #fff)" d="M11.812 15.692c1.095 0.78 3.001-0.060 4.257-1.877s1.386-3.922 0.291-4.702c-1.095-0.78-3.001 0.060-4.257 1.877s-1.386 3.922-0.291 4.702z"></path>
<path fill="#000" style="fill: var(--color2, #000)" d="M16.257 9.26c0.996 0.71 0.844 2.748-0.334 4.452s-3.014 2.543-4.010 1.833c-0.996-0.71-0.844-2.748 0.334-4.452s3.015-2.542 4.010-1.833zM16.461 8.965c-1.175-0.837-3.192 0.022-4.504 1.921s-1.423 4.116-0.247 4.953c1.175 0.837 3.192-0.022 4.504-1.921s1.424-4.115 0.247-4.953z"></path>
<path fill="#fff" style="fill: var(--color1, #fff)" d="M18.486 20.447c1.095 0.78 3.001-0.060 4.257-1.877s1.386-3.922 0.291-4.702c-1.095-0.78-3.001 0.060-4.257 1.877s-1.386 3.922-0.291 4.702z"></path>
<path fill="#000" style="fill: var(--color2, #000)" d="M22.931 14.015c0.996 0.71 0.844 2.748-0.334 4.452s-3.014 2.543-4.010 1.833c-0.996-0.71-0.844-2.748 0.334-4.452s3.015-2.542 4.010-1.833zM23.135 13.721c-1.175-0.837-3.192 0.023-4.504 1.921s-1.423 4.116-0.247 4.953 3.192-0.022 4.504-1.921c1.312-1.898 1.424-4.115 0.247-4.953z"></path>
<path fill="#000" style="fill: var(--color2, #000)" d="M14.032 13.316c0.614 0.438 1.675-0.021 2.368-1.024s0.758-2.171 0.143-2.609c-0.614-0.438-1.675 0.021-2.368 1.024s-0.758 2.171-0.143 2.609z"></path>
<path fill="#000" style="fill: var(--color2, #000)" d="M16.509 9.732c0.587 0.418 0.516 1.551-0.158 2.526s-1.699 1.428-2.286 1.009c-0.587-0.418-0.516-1.551 0.158-2.526s1.7-1.427 2.286-1.009zM16.577 9.634c-0.641-0.457-1.738 0.009-2.45 1.039s-0.77 2.236-0.129 2.693 1.738-0.009 2.45-1.039c0.712-1.030 0.77-2.236 0.129-2.693z"></path>
<path fill="#000" style="fill: var(--color2, #000)" d="M20.802 18.141c0.614 0.438 1.675-0.021 2.368-1.024s0.758-2.171 0.143-2.609c-0.614-0.438-1.675 0.021-2.368 1.024s-0.758 2.171-0.143 2.609z"></path>
<path fill="#000" style="fill: var(--color2, #000)" d="M23.28 14.556c0.587 0.418 0.516 1.551-0.158 2.526s-1.699 1.428-2.286 1.009-0.516-1.551 0.158-2.526c0.674-0.975 1.7-1.427 2.286-1.009zM23.348 14.458c-0.641-0.457-1.738 0.009-2.45 1.039s-0.77 2.236-0.129 2.693c0.641 0.457 1.738-0.009 2.45-1.039s0.77-2.236 0.129-2.693z"></path>
<path fill="#fff" style="fill: var(--color1, #fff)" d="M13.702 12.861c0.287 0.205 0.733 0.063 0.996-0.317s0.242-0.853-0.045-1.058c-0.287-0.205-0.733-0.063-0.996 0.317s-0.242 0.853 0.045 1.058z"></path>
<path fill="#fff" style="fill: var(--color1, #fff)" d="M20.501 17.853c0.287 0.205 0.733 0.063 0.996-0.317s0.242-0.853-0.045-1.058c-0.287-0.205-0.733-0.063-0.996 0.317s-0.242 0.853 0.045 1.058z"></path>
<path fill="#000" style="fill: var(--color2, #000)" d="M15.386 6.322c1.353 0.050 2.557 0.705 3.356 1.814 0.27 0.374 0.816-0.086 0.548-0.458-0.904-1.253-2.315-2.016-3.844-2.072-0.455-0.016-0.518 0.701-0.059 0.717z"></path>
<path fill="#000" style="fill: var(--color2, #000)" d="M23.254 11.196c1.276 0.466 2.219 1.47 2.648 2.769 0.145 0.439 0.788 0.135 0.645-0.3-0.487-1.475-1.615-2.622-3.055-3.148-0.429-0.156-0.669 0.521-0.238 0.679z"></path>
<path fill="none" stroke="#000" style="stroke: var(--color2, #000)" stroke-linejoin="miter" stroke-linecap="butt" stroke-miterlimit="10" stroke-width="0.6209" d="M11.914 22.434c-4.995-3.559-7.341-8.906-5.242-11.943"></path>
<path fill="none" stroke="#000" style="stroke: var(--color2, #000)" stroke-linejoin="miter" stroke-linecap="butt" stroke-miterlimit="10" stroke-width="0.6209" d="M24.759 23.379c-2.1 3.037-7.85 2.614-12.845-0.945"></path>
<path fill="none" stroke="#000" style="stroke: var(--color2, #000)" stroke-linejoin="miter" stroke-linecap="butt" stroke-miterlimit="10" stroke-width="0.6209" d="M5.439 9.978l2.603 0.829"></path>
<path fill="none" stroke="#000" style="stroke: var(--color2, #000)" stroke-linejoin="miter" stroke-linecap="butt" stroke-miterlimit="10" stroke-width="0.6209" d="M24.086 22.681l1.412 1.299"></path>
<path fill="none" stroke="#000" style="stroke: var(--color2, #000)" stroke-linejoin="miter" stroke-linecap="butt" stroke-miterlimit="10" stroke-width="0.4139" d="M14.343 6.949c-0.098 0.159-0.32 0.563-0.321 1.127-0.001 0.492 0.166 0.856 0.256 1.021"></path>
<path fill="none" stroke="#000" style="stroke: var(--color2, #000)" stroke-linejoin="miter" stroke-linecap="butt" stroke-miterlimit="10" stroke-width="0.4139" d="M14.73 7.292c-0.045 0.119-0.146 0.424-0.146 0.848-0.001 0.37 0.076 0.645 0.116 0.768"></path>
<path fill="none" stroke="#000" style="stroke: var(--color2, #000)" stroke-linejoin="miter" stroke-linecap="butt" stroke-miterlimit="10" stroke-width="0.4139" d="M15.331 7.775c-0.048 0.082-0.156 0.292-0.156 0.585-0 0.255 0.081 0.445 0.124 0.53"></path>
<path fill="none" stroke="#000" style="stroke: var(--color2, #000)" stroke-linejoin="miter" stroke-linecap="butt" stroke-miterlimit="10" stroke-width="0.4139" d="M25.816 14.977c-0.114 0.148-0.413 0.497-0.935 0.69-0.455 0.168-0.849 0.132-1.032 0.103"></path>
<path fill="none" stroke="#000" style="stroke: var(--color2, #000)" stroke-linejoin="miter" stroke-linecap="butt" stroke-miterlimit="10" stroke-width="0.4139" d="M25.368 14.725c-0.095 0.083-0.343 0.283-0.736 0.428-0.343 0.126-0.623 0.147-0.751 0.151"></path>
<path fill="none" stroke="#000" style="stroke: var(--color2, #000)" stroke-linejoin="miter" stroke-linecap="butt" stroke-miterlimit="10" stroke-width="0.4139" d="M24.715 14.316c-0.059 0.073-0.218 0.248-0.489 0.348-0.236 0.087-0.439 0.074-0.533 0.061"></path>
<path fill="#000" style="fill: var(--color2, #000); stroke: var(--color2, #000)" stroke="#000" stroke-linejoin="miter" stroke-linecap="butt" stroke-miterlimit="10" stroke-width="0.6209" d="M12.069 22.827c0.433-0.352 0.321-1.224-0.25-1.948s-1.385-1.026-1.818-0.674c-0.433 0.352-0.321 1.224 0.25 1.948s1.385 1.026 1.818 0.674z"></path>
<path fill="#000" style="fill: var(--color2, #000); stroke: var(--color2, #000)" stroke="#000" stroke-linejoin="miter" stroke-linecap="butt" stroke-miterlimit="10" stroke-width="0.6209" d="M11.599 23.308c0.881 0.628 1.672 1.027 1.766 0.892s-0.545-0.755-1.426-1.383c-0.881-0.628-1.672-1.027-1.766-0.892s0.545 0.755 1.426 1.383z"></path>
<path fill="#000" style="fill: var(--color2, #000); stroke: var(--color2, #000)" stroke="#000" stroke-linejoin="miter" stroke-linecap="butt" stroke-miterlimit="10" stroke-width="0.6209" d="M13.038 24.165c0.832 0.384 1.692 0.279 1.922-0.234s-0.259-1.239-1.091-1.623c-0.832-0.384-1.692-0.279-1.922 0.234s0.259 1.239 1.091 1.623z"></path>
</symbol>
<symbol id="icon-logo" viewBox="0 0 30 32">
<path d="M15.226 17.082c1.415-3.784-1.515-5.856-3.457-7.217-0.371-0.278-0.743-0.538-1.043-0.776-0.537-0.447-0.933-1.037-1.141-1.699s-0.217-1.37-0.029-2.037c0.019-0.070 0.019-0.144-0.001-0.213s-0.060-0.132-0.114-0.181c-0.054-0.049-0.121-0.083-0.193-0.097s-0.147-0.009-0.216 0.016c-0.654 0.255-1.262 0.612-1.801 1.058-0.518 0.393-0.937 0.898-1.226 1.476s-0.44 1.213-0.441 1.858c-0.366 0.285-0.69 0.618-0.962 0.992-0.499 0.672-0.75 1.492-0.709 2.324-0.595 0.538-1.038 1.22-1.286 1.977s-0.292 1.566-0.129 2.345c-0.237 0.141-0.42 0.355-0.521 0.608s-0.116 0.533-0.041 0.795c0.075 0.262 0.235 0.493 0.456 0.657s0.49 0.251 0.767 0.25h0.026v2.152c0 0.218 0.088 0.428 0.245 0.582s0.369 0.241 0.591 0.241h0.65l1.058 9.040c0.022 0.201 0.119 0.387 0.272 0.523s0.351 0.21 0.556 0.209h4.404c0.206-0 0.404-0.075 0.557-0.21s0.251-0.321 0.275-0.522l1.058-9.040h0.65c0.222 0 0.434-0.087 0.591-0.241s0.245-0.364 0.245-0.582v-2.152h0.026c0.336 0 0.658-0.131 0.895-0.366s0.371-0.551 0.371-0.883c0.002-0.165-0.030-0.329-0.094-0.482s-0.158-0.291-0.277-0.408l-0.011 0.004zM5.695 10.216c0.535 1.98 2.599 2.76 4.482 3.455 0.051 0.031 0.107 0.050 0.166 0.057s0.119 0 0.175-0.018c0.056-0.019 0.108-0.049 0.151-0.090s0.076-0.090 0.098-0.145c0.021-0.055 0.030-0.113 0.026-0.172s-0.021-0.115-0.050-0.166c-0.029-0.051-0.069-0.095-0.117-0.129s-0.104-0.057-0.162-0.068c-2.027-0.758-3.939-1.464-4.084-3.488-0.034-0.556 0.072-1.112 0.308-1.619s0.596-0.947 1.047-1.284c0.282-0.232 0.586-0.437 0.906-0.615-0.021 0.253-0.021 0.508 0 0.761 0.043 0.58 0.204 1.146 0.473 1.663s0.641 0.976 1.094 1.349c0.308 0.26 0.691 0.527 1.114 0.813 0.976 0.692 2.087 1.464 2.792 2.511 0.376 0.537 0.611 1.158 0.681 1.807s-0.024 1.305-0.277 1.908h-1.641c-3.383 0-7.27-0.922-8.039-3.506-0.152-0.532-0.151-1.095 0.004-1.626s0.457-1.009 0.873-1.379l-0.019-0.018zM8.74 22.693l1.24 1.222-1.24 1.222-1.24-1.23 1.24-1.215zM11.584 25.903l-1.025 1.010-1.24-1.222 1.24-1.219 1.077 1.058-0.052 0.373zM8.74 28.706l-1.24-1.222 1.24-1.222 1.24 1.222-1.24 1.222zM8.172 25.698l-1.24 1.222-1.032-1.017-0.045-0.366 1.077-1.058 1.24 1.219zM6.36 27.484l-0.249 0.245-0.063-0.556 0.312 0.311zM6.23 28.735l0.702-0.692 1.363 1.354c0.007 0.027 0.016 0.054 0.026 0.081h-2.005l-0.085-0.743zM10.552 28.044l0.702 0.692-0.085 0.732h-2.061l1.444-1.424zM11.369 27.729l-0.249-0.245 0.316-0.311-0.067 0.556zM11.74 24.53l-0.62-0.622 0.787-0.776-0.167 1.398zM10.548 23.352l-1.177-1.157h2.354l-1.177 1.157zM6.928 23.352l-1.177-1.157h2.354l-1.177 1.157zM10.938 31.169h-4.4c-0.007-0.001-0.013-0.004-0.018-0.008s-0.008-0.011-0.008-0.017l-0.104-0.878h4.663l-0.1 0.878c-0.001 0.007-0.004 0.014-0.010 0.018s-0.012 0.007-0.020 0.007h-0.004zM14.343 18.418h-1.292c-0.056-0.005-0.113 0.001-0.166 0.019s-0.103 0.046-0.145 0.083c-0.042 0.037-0.075 0.083-0.098 0.134s-0.035 0.106-0.035 0.161c0 0.056 0.012 0.111 0.035 0.161s0.056 0.096 0.098 0.134c0.042 0.037 0.091 0.066 0.145 0.083s0.11 0.024 0.166 0.019h0.46v2.152c-0.001 0.007-0.004 0.014-0.010 0.018s-0.012 0.007-0.020 0.007h-9.494c-0.007 0-0.014-0.003-0.020-0.007s-0.009-0.011-0.010-0.018v-2.152h7.355c0.1-0.009 0.193-0.055 0.261-0.129s0.105-0.169 0.105-0.268-0.037-0.195-0.105-0.268c-0.068-0.073-0.161-0.119-0.261-0.129h-8.168c-0.064 0.006-0.128-0.002-0.188-0.022s-0.116-0.053-0.163-0.095c-0.047-0.043-0.085-0.094-0.111-0.152s-0.039-0.12-0.039-0.183c0-0.063 0.013-0.125 0.039-0.183s0.063-0.109 0.111-0.152c0.047-0.043 0.103-0.075 0.163-0.095s0.125-0.028 0.188-0.022h0.843c0.1-0.009 0.193-0.055 0.261-0.129s0.105-0.169 0.105-0.268-0.037-0.195-0.105-0.268c-0.068-0.073-0.161-0.119-0.261-0.129h-0.743c-0.106-0.557-0.089-1.13 0.051-1.68s0.399-1.063 0.759-1.505c0.26 0.798 0.928 1.889 2.599 2.756 1.571 0.809 3.65 1.222 6.178 1.222h1.485c0.064-0.006 0.128 0.002 0.188 0.022s0.116 0.053 0.163 0.095c0.047 0.043 0.085 0.094 0.111 0.152s0.039 0.12 0.039 0.183c0 0.063-0.013 0.125-0.039 0.183s-0.063 0.109-0.111 0.152c-0.047 0.043-0.103 0.075-0.163 0.095s-0.125 0.028-0.188 0.022h0.026z"></path>
<path d="M16.964 29.152l-0.292 0.449 0.006 0.004 0.287-0.453zM20.113 29.303l0.535-0.012-0.014-0.62-0.611 0.104 0.090 0.528zM20.15 30.951l0.136 0.518 0.409-0.108-0.009-0.422-0.535 0.012zM16.017 31.030l0.12-0.522-0.003-0.001-0.117 0.523zM13.977 30.119l0.347-0.408-0.001-0.001-0.346 0.409zM13.24 28.446l0.536 0.003v-0.003h-0.536zM13.496 27.274l-0.481-0.236-0 0.001 0.481 0.236zM15.139 25.872l0.19 0.501 0.002-0.001-0.192-0.5zM20.401 25.736l0.534 0.042 0.035-0.452-0.44-0.109-0.129 0.52zM20.27 27.415l-0.1 0.526 0.587 0.111 0.046-0.596-0.534-0.042zM18.842 26.728c-0.804 0-1.48 0.086-1.973 0.303-0.253 0.111-0.483 0.268-0.651 0.489-0.173 0.228-0.255 0.494-0.255 0.774h1.071c0-0.063 0.015-0.098 0.038-0.127 0.028-0.037 0.090-0.095 0.228-0.155 0.288-0.126 0.784-0.212 1.542-0.212v-1.071zM15.963 28.294c0 0.551 0.247 1.006 0.709 1.307l0.585-0.897c-0.159-0.104-0.222-0.221-0.222-0.409h-1.071zM16.678 29.604c0.438 0.277 1.015 0.381 1.662 0.381v-1.071c-0.559 0-0.899-0.095-1.089-0.215l-0.573 0.905zM18.34 29.986c0.636 0 1.257-0.051 1.863-0.154l-0.179-1.056c-0.545 0.092-1.106 0.139-1.684 0.139v1.071zM19.578 29.315l0.037 1.648 1.071-0.024-0.037-1.648-1.071 0.024zM20.013 30.433c-0.612 0.161-1.288 0.244-2.029 0.244v1.071c0.821 0 1.589-0.092 2.302-0.279l-0.273-1.036zM17.984 30.677c-0.757 0-1.369-0.059-1.847-0.169l-0.24 1.044c0.582 0.134 1.281 0.197 2.087 0.197v-1.071zM16.134 30.507c-0.511-0.114-0.88-0.236-1.127-0.356l-0.47 0.963c0.354 0.173 0.814 0.316 1.363 0.439l0.234-1.045zM15.008 30.151c-0.264-0.129-0.491-0.276-0.684-0.44l-0.693 0.817c0.267 0.227 0.571 0.421 0.907 0.585l0.47-0.963zM14.323 29.71c-0.364-0.308-0.55-0.709-0.548-1.262l-1.071-0.005c-0.004 0.842 0.301 1.556 0.927 2.086l0.691-0.818zM13.776 28.446c0-0.36 0.071-0.669 0.202-0.936l-0.962-0.471c-0.211 0.43-0.311 0.903-0.311 1.407h1.071zM13.977 27.51c0.244-0.495 0.674-0.88 1.352-1.137l-0.38-1.002c-0.884 0.336-1.549 0.885-1.933 1.666l0.961 0.473zM15.331 26.372c0.713-0.274 1.508-0.414 2.392-0.414v-1.071c-0.999 0-1.926 0.159-2.776 0.485l0.384 1zM17.723 25.958c0.902 0 1.751 0.1 2.549 0.298l0.258-1.040c-0.889-0.221-1.826-0.33-2.807-0.33v1.071zM19.867 25.695l-0.131 1.679 1.068 0.083 0.131-1.679-1.068-0.083zM20.37 26.889c-0.557-0.106-1.068-0.161-1.528-0.161v1.071c0.377 0 0.818 0.046 1.328 0.142l0.2-1.052zM25.596 27.745l-0.003 0.536 0.544 0.003-0.006-0.544-0.536 0.006zM25.366 27.049l-0.364 0.393 0.005 0.004 0.36-0.397zM24.032 27.101l0.371 0.386 0.004-0.004-0.375-0.383zM23.708 27.734l-0.529-0.087-0.102 0.619 0.627 0.003 0.003-0.536zM27.646 30.59l0.324 0.427 0.193-0.146 0.018-0.241-0.534-0.040zM26.49 31.019l-0.115-0.523-0.003 0.001 0.118 0.522zM22.473 30.873l-0.183 0.504 0.004 0.002 0.178-0.505zM21.558 30.386l-0.332 0.42 0.003 0.003 0.003 0.003 0.326-0.425zM20.946 29.617l-0.48 0.237 0.001 0.002 0.479-0.24zM21.573 26.369l0.356 0.4 0-0-0.356-0.4zM26.469 25.788l0.214-0.491-0.005-0.002-0.209 0.493zM27.699 26.918l-0.482 0.234 0.001 0.003 0.48-0.237zM27.908 27.855l0.534 0.039 0.001-0.019v-0.019h-0.536zM27.845 28.718l-0.003 0.536 0.501 0.002 0.036-0.499-0.534-0.039zM23.603 28.697l0.003-0.536-0.699-0.003 0.178 0.676 0.518-0.137zM24.21 29.445l-0.264 0.466 0.002 0.001 0.261-0.468zM27.463 29.262v-0.536h-0.107l-0.099 0.041 0.206 0.494zM27.746 29.262l0.534 0.040 0.043-0.576h-0.577v0.536zM26.131 27.739c-0.004-0.387-0.093-0.803-0.406-1.087l-0.72 0.794c-0.006-0.006 0.006 0.001 0.021 0.047 0.016 0.049 0.032 0.131 0.033 0.257l1.071-0.011zM25.73 26.657c-0.281-0.261-0.65-0.347-1.013-0.347v1.071c0.209 0 0.272 0.050 0.284 0.061l0.729-0.785zM24.717 26.309c-0.399 0-0.77 0.125-1.060 0.409l0.75 0.765c0.058-0.057 0.144-0.103 0.31-0.103v-1.071zM23.661 26.715c-0.264 0.253-0.423 0.572-0.482 0.932l1.057 0.174c0.024-0.149 0.082-0.252 0.167-0.333l-0.742-0.773zM23.705 28.27l1.888 0.011 0.006-1.071-1.888-0.011-0.006 1.071zM27.323 30.163c-0.117 0.089-0.404 0.213-0.948 0.333l0.23 1.046c0.565-0.124 1.049-0.286 1.364-0.525l-0.647-0.854zM26.372 30.497c-0.519 0.117-1.018 0.175-1.498 0.175v1.071c0.566 0 1.145-0.068 1.735-0.201l-0.237-1.045zM24.874 30.672c-0.505 0-0.92-0.024-1.252-0.068l-0.143 1.062c0.394 0.053 0.86 0.078 1.395 0.078v-1.071zM23.622 30.603c-0.325-0.044-0.649-0.122-0.971-0.236l-0.357 1.010c0.389 0.137 0.784 0.233 1.184 0.287l0.143-1.062zM22.656 30.369c-0.313-0.114-0.568-0.251-0.772-0.408l-0.652 0.85c0.305 0.234 0.66 0.421 1.059 0.565l0.365-1.007zM21.89 29.966c-0.184-0.146-0.34-0.338-0.465-0.588l-0.958 0.479c0.189 0.377 0.44 0.697 0.759 0.949l0.665-0.84zM21.426 29.38c-0.113-0.228-0.18-0.521-0.18-0.898h-1.071c0 0.502 0.090 0.966 0.291 1.372l0.96-0.475zM21.246 28.482c0-0.377 0.068-0.71 0.196-1.006l-0.983-0.427c-0.192 0.443-0.285 0.923-0.285 1.432h1.071zM21.442 27.477c0.135-0.311 0.3-0.541 0.487-0.708l-0.712-0.8c-0.322 0.287-0.572 0.653-0.758 1.081l0.983 0.427zM21.93 26.769c0.576-0.513 1.454-0.811 2.719-0.811v-1.071c-1.42 0-2.592 0.334-3.432 1.083l0.713 0.8zM24.649 25.958c0.568 0 1.103 0.108 1.611 0.324l0.418-0.986c-0.643-0.273-1.321-0.409-2.029-0.409v1.071zM26.255 26.279c0.474 0.207 0.78 0.5 0.962 0.873l0.963-0.468c-0.307-0.631-0.82-1.091-1.497-1.387l-0.428 0.982zM27.218 27.155c0.1 0.203 0.154 0.433 0.154 0.699h1.071c0-0.417-0.086-0.811-0.265-1.173l-0.96 0.474zM27.374 27.816l-0.063 0.863 1.068 0.078 0.063-0.863-1.068-0.078zM27.848 28.182l-4.242-0.021-0.005 1.071 4.242 0.021 0.005-1.071zM23.085 28.833c0.125 0.475 0.431 0.835 0.861 1.078l0.527-0.933c-0.212-0.12-0.31-0.258-0.352-0.418l-1.036 0.273zM23.948 29.912c0.434 0.243 0.978 0.34 1.585 0.34v-1.071c-0.509 0-0.848-0.084-1.062-0.204l-0.523 0.935zM25.533 30.252c0.651 0 1.367-0.176 2.136-0.496l-0.412-0.989c-0.689 0.287-1.26 0.414-1.724 0.414v1.071zM27.463 29.797h0.282v-1.071h-0.282v1.071zM27.212 29.222l-0.099 1.329 1.068 0.080 0.099-1.329-1.068-0.080z"></path>
</symbol>
<symbol id="icon-telegram" viewBox="0 0 44 32">
<path d="M17.343 21.048l-0.675 8.86c0.966 0 1.384-0.387 1.885-0.852l4.527-4.038 9.381 6.412c1.72 0.895 2.933 0.424 3.397-1.477l6.157-26.929 0.002-0.002c0.546-2.374-0.92-3.302-2.596-2.72l-36.194 12.933c-2.47 0.895-2.433 2.18-0.42 2.762l9.253 2.686 21.494-12.552c1.012-0.625 1.931-0.279 1.175 0.346l-17.386 14.57z"></path>
</symbol>
</defs>
</svg>
